<?xml version="1.0" encoding="UTF-8"?>
<svg version="1.1" xmlns="http://www.w3.org/2000/svg" width="500" height="500">
<path d="M0 0 C1.15113281 -0.02835938 2.30226563 -0.05671875 3.48828125 -0.0859375 C8.52272829 0.63941629 11.5957103 3.16190033 14.9375 6.875 C20.84392751 15.31275359 20.79695961 25.89128804 21.86499023 35.86645508 C22.59333991 42.6486386 23.40821984 49.418504 24.25 56.1875 C24.37689209 57.2197168 24.50378418 58.25193359 24.63452148 59.31542969 C24.75641846 60.2902832 24.87831543 61.26513672 25.00390625 62.26953125 C25.11162354 63.13425049 25.21934082 63.99896973 25.33032227 64.88989258 C25.57194911 66.57104069 25.86881612 68.24501546 26.21533203 69.90771484 C26.99571935 73.98558155 26.9542915 78.04631005 27 82.1875 C27.04350586 83.48397461 27.04350586 83.48397461 27.08789062 84.80664062 C27.16346909 92.50983015 25.12218406 97.59250393 20.0625 103.375 C17.6875 105.375 17.6875 105.375 15.6875 105.375 C15.6875 106.035 15.6875 106.695 15.6875 107.375 C15.0275 107.375 14.3675 107.375 13.6875 107.375 C13.44 107.931875 13.1925 108.48875 12.9375 109.0625 C11.6875 111.375 11.6875 111.375 9.8125 113.5625 C-1.07628355 127.97412528 1.03894623 145.7242847 3.26831055 162.52685547 C4.35204959 170.01417215 5.99255814 177.28073034 7.84814453 184.60913086 C9.98555295 193.19178404 11.14680071 201.81943664 12.30175781 210.578125 C12.99525875 215.6064457 13.81315324 220.61465677 14.625 225.625 C14.79249756 226.66269531 14.95999512 227.70039063 15.13256836 228.76953125 C15.47536423 230.89071351 15.81871208 233.01180663 16.16259766 235.1328125 C17.05244303 240.62915971 17.93232064 246.12709815 18.8125 251.625 C19.05021118 253.10468262 19.05021118 253.10468262 19.29272461 254.61425781 C19.6030987 256.55047077 19.91152605 258.48699678 20.21801758 260.42382812 C20.53696957 262.42876398 20.862566 264.43265177 21.1940918 266.43554688 C22.586844 275.05324257 23.46643805 283.68646757 24.25 292.375 C24.43839698 294.44760862 24.62800313 296.52007963 24.82078552 298.59228516 C24.99350404 300.45058157 25.16204712 302.30926471 25.33032227 304.16796875 C25.63131933 307.29246643 25.63131933 307.29246643 26.21533203 310.0078125 C27.03212745 314.10277029 26.95474518 318.21155637 27 322.375 C27.04350586 323.70917969 27.04350586 323.70917969 27.08789062 325.0703125 C27.12884964 329.29224157 27.09275691 331.70536948 24.8671875 335.3828125 C21.43913531 338.51597848 18.12423322 340.27050887 13.41015625 340.47265625 C9.73044862 340.22162794 7.09875197 339.58956624 3.8125 337.875 C-0.97604149 332.24142177 -1.75538005 324.71576754 -2.3125 317.5625 C-2.89047851 311.22014098 -3.65294292 304.97039234 -4.6875 298.6875 C-10.06165783 264.75620325 -12.56202161 229.76827192 -13.97167969 195.45947266 C-14.20845619 190.20233093 -14.87608431 185.13901767 -15.78125 179.9609375 C-16.48700697 175.19707794 -16.85430924 170.42305636 -17.25 165.625 C-19.24149253 140.05905086 -19.24149253 140.05905086 -33.3125 119.375 C-35.94268514 117.64461504 -38.59382936 116.08332204 -41.37109375 114.6015625 C-42.01175781 114.19679688 -42.65242188 113.79203125 -43.3125 113.375 C-43.3125 112.715 -43.3125 112.055 -43.3125 111.375 C-44.364375 111.00375 -44.364375 111.00375 -45.4375 110.625 C-51.72637539 107.89070635 -55.65741242 104.76534389 -58.3125 98.375 C-59.2656321 94.53703956 -59.76062213 90.67104698 -60.25 86.75 C-60.40549316 85.57590576 -60.56098633 84.40181152 -60.72119141 83.19213867 C-61.16818238 79.73742508 -61.59611189 76.28130554 -62.01446533 72.82305908 C-62.33980819 70.15069029 -62.67331918 67.47940498 -63.00732422 64.80810547 C-63.63316155 59.78030741 -64.23776163 54.75028719 -64.82913208 49.71832275 C-65.0667598 47.70863534 -65.30879836 45.69946424 -65.5553894 43.69085693 C-65.90362019 40.8332001 -66.23160607 37.97387731 -66.5546875 35.11328125 C-66.66167465 34.26418686 -66.7686618 33.41509247 -66.87889099 32.54026794 C-67.48659285 26.90903261 -67.28734052 21.74358979 -65.3125 16.375 C-62.8125 13.3125 -62.8125 13.3125 -60.3125 11.375 C-59.6525 11.375 -58.9925 11.375 -58.3125 11.375 C-58.3125 10.715 -58.3125 10.055 -58.3125 9.375 C-48.72014641 4.2814861 -37.91478019 3.63424564 -27.3125 2.375 C-26.46316895 2.26913574 -25.61383789 2.16327148 -24.73876953 2.05419922 C-16.51577092 1.03460556 -8.28825151 0.19398035 0 0 Z M-15.3125 13.375 C-17.13801973 15.20051973 -16.47810651 18.00353909 -16.48828125 20.45703125 C-16.42895683 28.40951974 -15.5466563 36.18262842 -14.5 44.0625 C-14.12673334 46.95919489 -13.75870941 49.85654892 -13.390625 52.75390625 C-13.29804916 53.47576111 -13.20547333 54.19761597 -13.11009216 54.94134521 C-12.50339891 59.7148258 -11.9707867 64.49006042 -11.484375 69.27734375 C-11.35909424 70.4991333 -11.23381348 71.72092285 -11.10473633 72.97973633 C-10.87456417 75.26387419 -10.65255531 77.54885502 -10.44018555 79.8347168 C-9.84941956 85.59366812 -8.95572632 90.20569867 -6.3125 95.375 C-5.3225 95.375 -4.3325 95.375 -3.3125 95.375 C-0.00515122 88.76030243 -3.33163268 79.36406486 -4.70596313 72.57919312 C-7.92087151 56.62733801 -10.49856544 40.57251766 -11.50146484 24.31103516 C-11.59935303 22.83642822 -11.59935303 22.83642822 -11.69921875 21.33203125 C-11.74651123 20.45135986 -11.79380371 19.57068848 -11.8425293 18.66333008 C-12.38973061 15.99895715 -13.23387328 15.0675514 -15.3125 13.375 Z M1.6875 16.375 C1.53968283 22.72046256 1.86324197 28.68819743 2.9375 34.9375 C4.71111603 45.93500748 6.01677912 56.97962313 7.32910156 68.03930664 C7.41185333 68.73542053 7.4946051 69.43153442 7.5798645 70.14874268 C7.80600255 72.05514472 8.03026204 73.96176933 8.25439453 75.8684082 C8.39731934 77.0255835 8.54024414 78.18275879 8.6875 79.375 C8.91348877 81.27028442 8.91348877 81.27028442 9.14404297 83.20385742 C9.69823486 86.43763932 10.10201879 87.46399215 12.6875 89.375 C14.11144207 88.17323579 14.11144207 88.17323579 13.89453125 84.671875 C13.81942881 78.21051911 12.53244493 71.96399628 11.375 65.625 C9.25803241 53.6156675 7.72931136 41.66707875 6.67651367 29.51660156 C6.57314697 28.37416992 6.46978027 27.23173828 6.36328125 26.0546875 C6.27989502 25.05163574 6.19650879 24.04858398 6.1105957 23.01513672 C5.69448421 20.41858176 5.00256302 18.6337037 3.6875 16.375 C3.0275 16.375 2.3675 16.375 1.6875 16.375 Z M-35.3125 17.375 C-35.84628659 36.41338831 -33.35953828 54.99011051 -30.375 73.75 C-30.24784607 74.56317688 -30.12069214 75.37635376 -29.98968506 76.21417236 C-29.61871663 78.56895078 -29.23530064 80.92135277 -28.84765625 83.2734375 C-28.73822189 83.9716864 -28.62878754 84.6699353 -28.51603699 85.38934326 C-27.67839143 90.33382683 -26.18309454 94.72046899 -24.3125 99.375 C-23.6525 99.375 -22.9925 99.375 -22.3125 99.375 C-22.02615556 89.82677657 -22.91418793 80.52324173 -24.0625 71.0625 C-24.24365452 69.53446264 -24.42447594 68.00638576 -24.60498047 66.47827148 C-25.07098727 62.55534291 -25.5475494 58.63377292 -26.02746582 54.71252441 C-26.30871652 52.40602781 -26.58608553 50.09909629 -26.86230469 47.79199219 C-27.29493887 44.18446114 -27.73625755 40.5781044 -28.18518066 36.9725647 C-28.43305833 34.97332398 -28.67507906 32.97335988 -28.91699219 30.97338867 C-29.07071289 29.76658447 -29.22443359 28.55978027 -29.3828125 27.31640625 C-29.51445801 26.26138916 -29.64610352 25.20637207 -29.78173828 24.11938477 C-30.28353186 21.5247842 -30.99705378 19.64958313 -32.3125 17.375 C-33.3025 17.375 -34.2925 17.375 -35.3125 17.375 Z M-50.3125 23.375 C-53.4866718 34.06026798 -50.77036514 46.51014137 -49.375 57.375 C-49.00757663 60.2911609 -48.64510514 63.20790772 -48.28515625 66.125 C-48.19747482 66.82772034 -48.1097934 67.53044067 -48.01945496 68.25445557 C-47.35522783 73.69813763 -46.91656633 79.14050294 -46.59912109 84.61621094 C-46.17425333 88.70565368 -45.17951018 92.69457802 -43.3125 96.375 C-42.6525 96.705 -41.9925 97.035 -41.3125 97.375 C-40.43041952 92.42323998 -40.35650015 88.23281264 -41.01953125 83.25390625 C-41.10498703 82.59148422 -41.19044281 81.92906219 -41.27848816 81.24656677 C-41.55191166 79.1422846 -41.83808859 77.03998102 -42.125 74.9375 C-42.30620882 73.56326552 -42.48655316 72.18891676 -42.66601562 70.81445312 C-43.02701866 68.05617582 -43.39327032 65.29866495 -43.76269531 62.54150391 C-44.31913268 58.3630692 -44.83434686 54.18000445 -45.34765625 49.99609375 C-46.09575085 43.93556143 -46.95154645 37.90138955 -47.9375 31.875 C-48.0715625 31.04097656 -48.205625 30.20695312 -48.34375 29.34765625 C-48.66418684 27.3563702 -48.98794262 25.3656186 -49.3125 23.375 C-49.6425 23.375 -49.9725 23.375 -50.3125 23.375 Z M9.6875 325.375 C10.09278901 328.15737655 10.09278901 328.15737655 11.6875 330.375 C13.35367115 330.41563832 15.02138095 330.417721 16.6875 330.375 C17.68967064 326.79172247 17.68967064 326.79172247 16.6875 323.375 C12.73292152 323.02676193 12.73292152 323.02676193 9.6875 325.375 Z " fill="#EAE5DA" transform="translate(177.3125,51.625)"/>
<path d="M0 0 C4.38700403 0.83201801 5.72158276 2.03276891 8.34765625 5.515625 C10.61425053 9.36952843 11.61505957 13.36005827 12.625 17.6875 C12.99044922 19.07001953 12.99044922 19.07001953 13.36328125 20.48046875 C15.25153379 27.96569549 16.3846539 35.49455483 17.43188477 43.13110352 C18.38524943 50.08228772 19.44360803 57.0110774 20.5625 63.9375 C20.72983643 64.97455078 20.89717285 66.01160156 21.06958008 67.08007812 C21.41259525 69.2019023 21.75610506 71.32364657 22.10009766 73.4453125 C22.98994303 78.94165971 23.86982064 84.43959815 24.75 89.9375 C24.90847412 90.92395508 25.06694824 91.91041016 25.23022461 92.92675781 C25.5405987 94.86297077 25.84902605 96.79949678 26.15551758 98.73632812 C26.47446957 100.74126398 26.800066 102.74515177 27.1315918 104.74804688 C28.524344 113.36574257 29.40393805 121.99896757 30.1875 130.6875 C30.37589698 132.76010862 30.56550313 134.83257963 30.75828552 136.90478516 C30.93100404 138.76308157 31.09954712 140.62176471 31.26782227 142.48046875 C31.56881933 145.60496643 31.56881933 145.60496643 32.15283203 148.3203125 C32.96962745 152.41527029 32.89224518 156.52405637 32.9375 160.6875 C32.96650391 161.57695312 32.99550781 162.46640625 33.02539062 163.3828125 C33.06634964 167.60474157 33.03025691 170.01786948 30.8046875 173.6953125 C27.37663531 176.82847848 24.06173322 178.58300887 19.34765625 178.78515625 C15.66794862 178.53412794 13.03625197 177.90206624 9.75 176.1875 C4.96145851 170.55392177 4.18211995 163.02826754 3.625 155.875 C3.04702149 149.53264098 2.28455708 143.28289234 1.25 137 C-1.30672657 120.85736878 -2.62390248 104.52965113 -4.13354492 88.2633667 C-4.36541479 85.78975593 -4.60432854 83.31693765 -4.84570312 80.84423828 C-6.68155328 61.91636674 -7.68402543 43.08252164 -7.8125 24.0625 C-7.82462524 23.11482758 -7.83675049 22.16715515 -7.84924316 21.19076538 C-7.87863078 18.50949674 -7.87973807 15.82982195 -7.87109375 13.1484375 C-7.88773323 11.94963203 -7.88773323 11.94963203 -7.90470886 10.72660828 C-7.8604685 7.18615 -7.67435957 5.09636374 -5.55493164 2.20166016 C-3.375 0.6875 -3.375 0.6875 0 0 Z M15.625 163.6875 C16.03028901 166.46987655 16.03028901 166.46987655 17.625 168.6875 C19.29117115 168.72813832 20.95888095 168.730221 22.625 168.6875 C23.62717064 165.10422247 23.62717064 165.10422247 22.625 161.6875 C18.67042152 161.33926193 18.67042152 161.33926193 15.625 163.6875 Z " fill="#FC7520" transform="translate(171.375,213.3125)"/>
<path d="M0 0 C0.33 0 0.66 0 1 0 C2.61554164 9.63345315 3.68563491 19.27687512 4.5625 29 C4.75089698 31.07260862 4.94050313 33.14507963 5.13328552 35.21728516 C5.30600404 37.07558157 5.47454712 38.93426471 5.64282227 40.79296875 C5.94381933 43.91746643 5.94381933 43.91746643 6.52783203 46.6328125 C7.34462745 50.72777029 7.26724518 54.83655637 7.3125 59 C7.35600586 60.33417969 7.35600586 60.33417969 7.40039062 61.6953125 C7.44134964 65.91724157 7.40525691 68.33036948 5.1796875 72.0078125 C1.75163531 75.14097848 -1.56326678 76.89550887 -6.27734375 77.09765625 C-11.24458741 76.75879271 -14.52663613 75.80949585 -18 72 C-18 71.01 -18 70.02 -18 69 C-16.35 69.33 -14.7 69.66 -13 70 C-13.33 71.32 -13.66 72.64 -14 74 C-12.35 74 -10.7 74 -9 74 C-9 73.34 -9 72.68 -9 72 C-8.34 72 -7.68 72 -7 72 C-7 72.66 -7 73.32 -7 74 C-4.69 74 -2.38 74 0 74 C-0.495 73.54625 -0.99 73.0925 -1.5 72.625 C-3 71 -3 71 -3 69 C-6.3 68.67 -9.6 68.34 -13 68 C-12.34 64.7 -11.68 61.4 -11 58 C-3.57142857 57.71428571 -3.57142857 57.71428571 0 60 C-0.33 61.65 -0.66 63.3 -1 65 C-0.38125 64.505 0.2375 64.01 0.875 63.5 C3 62 3 62 5 62 C4.7834375 60.66001953 4.7834375 60.66001953 4.5625 59.29296875 C3.75882088 53.66014027 3.41509756 47.98441902 3 42.3125 C2.75165083 38.97724825 2.50217868 35.64209339 2.25 32.30712891 C2.08010342 30.05964938 1.91355695 27.81191462 1.75 25.56396484 C1.6675 24.48453613 1.585 23.40510742 1.5 22.29296875 C1.4278125 21.32254639 1.355625 20.35212402 1.28125 19.35229492 C1.1323347 16.98311457 1.1323347 16.98311457 0 15 C-0.0716735 12.44842345 -0.09308442 9.92527029 -0.0625 7.375 C-0.05798828 6.66859375 -0.05347656 5.9621875 -0.04882812 5.234375 C-0.03703875 3.48954725 -0.01910324 1.744763 0 0 Z M-10 62 C-9.59471099 64.78237655 -9.59471099 64.78237655 -8 67 C-6.33382885 67.04063832 -4.66611905 67.042721 -3 67 C-1.99782936 63.41672247 -1.99782936 63.41672247 -3 60 C-6.95457848 59.65176193 -6.95457848 59.65176193 -10 62 Z " fill="#F4853E" transform="translate(197,315)"/>
<path d="M0 0 C0.33 0 0.66 0 1 0 C3.66338691 11.07265927 5.6914278 22.08775768 7.21875 33.37109375 C8.04844091 39.47169864 9.01715315 45.54745264 10 51.625 C10.25281738 53.19677002 10.25281738 53.19677002 10.51074219 54.80029297 C11.30576511 59.73420214 12.10926885 64.66661436 12.921875 69.59765625 C13.19794223 71.29426667 13.47398538 72.99088102 13.75 74.6875 C13.87761719 75.44691895 14.00523437 76.20633789 14.13671875 76.98876953 C14.79177282 81.03593645 15.12911014 84.90075298 15 89 C14.34 89 13.68 89 13 89 C13 85.04 13 81.08 13 77 C12.34 77 11.68 77 11 77 C11 73.37 11 69.74 11 66 C10.34 66 9.68 66 9 66 C8.91435791 65.2886792 8.82871582 64.5773584 8.74047852 63.84448242 C8.35103793 60.62508937 7.9568257 57.40629819 7.5625 54.1875 C7.42779297 53.06794922 7.29308594 51.94839844 7.15429688 50.79492188 C7.02216797 49.72177734 6.89003906 48.64863281 6.75390625 47.54296875 C6.63345947 46.55321045 6.5130127 45.56345215 6.38891602 44.54370117 C6.05596634 41.88587629 6.05596634 41.88587629 5 39 C4.73533064 36.13484919 4.55603846 33.27024052 4.37890625 30.3984375 C4.25386719 29.60695312 4.12882813 28.81546875 4 28 C3.34 27.67 2.68 27.34 2 27 C2.33 23.04 2.66 19.08 3 15 C1.35 14.67 -0.3 14.34 -2 14 C-2 13.34 -2 12.68 -2 12 C-1.01 12 -0.02 12 1 12 C0.835 11.505 0.67 11.01 0.5 10.5 C-0.20688818 6.96555911 -0.06005155 3.60309299 0 0 Z " fill="#EF955B" transform="translate(182,226)"/>
<path d="M0 0 C0.66 0.33 1.32 0.66 2 1 C3.4780676 1.10096856 4.95755117 1.18195638 6.4375 1.25 C10.71066775 1.67662866 10.71066775 1.67662866 13.125 4.375 C14 7 14 7 13 10 C12.319375 9.01 11.63875 8.02 10.9375 7 C8.62925443 4.21826816 8.20243058 4.03141164 4.375 3.4375 C0.81604936 4.03065844 0.0566018 4.20148604 -2 7 C-2.5040817 9.50873159 -2.5040817 9.50873159 -2.51171875 12.32421875 C-2.54716797 13.35224609 -2.58261719 14.38027344 -2.61914062 15.43945312 C-2.64169922 16.51130859 -2.66425781 17.58316406 -2.6875 18.6875 C-2.72166016 19.77095703 -2.75582031 20.85441406 -2.79101562 21.97070312 C-2.8735456 24.6470322 -2.94267937 27.32303159 -3 30 C-7.23987948 22.26135818 -6.11917355 12.56725393 -6 4 C-4.7934375 3.566875 -4.7934375 3.566875 -3.5625 3.125 C-0.8673532 2.26737432 -0.8673532 2.26737432 0 0 Z " fill="#F4E2D3" transform="translate(167,211)"/>
<path d="M0 0 C2.76531192 2.76531192 2.36369014 4.70897263 2.5625 8.5625 C2.42225226 12.60086946 2.42225226 12.60086946 4 16 C4.32526705 19.36109285 4.5135946 22.7233399 4.71875 26.09375 C4.6785989 28.89050132 4.6785989 28.89050132 6 30 C6.08631874 31.34267413 6.10706473 32.68974322 6.09765625 34.03515625 C6.09282227 35.24848633 6.09282227 35.24848633 6.08789062 36.48632812 C6.07951172 37.33646484 6.07113281 38.18660156 6.0625 39.0625 C6.05798828 39.91650391 6.05347656 40.77050781 6.04882812 41.65039062 C6.03700373 43.76695663 6.01906769 45.88348685 6 48 C3.60945994 44.19527599 3.36908205 40.12719509 2.9296875 35.76171875 C2.84373322 34.96272659 2.75777893 34.16373444 2.66921997 33.3405304 C2.48918996 31.65229355 2.31291319 29.9636528 2.14013672 28.2746582 C1.87691523 25.70618847 1.6015833 23.13924251 1.32421875 20.57226562 C1.15032202 18.92715925 0.97712239 17.281979 0.8046875 15.63671875 C0.72346649 14.87606613 0.64224548 14.11541351 0.55856323 13.33171082 C0.10601763 8.86125233 -0.07634109 4.49337744 0 0 Z " fill="#EF975F" transform="translate(169,311)"/>
<path d="M0 0 C0.33 0 0.66 0 1 0 C7.44216824 28.14539521 7.44216824 28.14539521 7 42 C4.39353285 38.09029928 4.58532793 35.00049703 4.34375 30.3984375 C4.17359375 29.21121094 4.17359375 29.21121094 4 28 C3.34 27.67 2.68 27.34 2 27 C2.33 23.04 2.66 19.08 3 15 C1.35 14.67 -0.3 14.34 -2 14 C-2 13.34 -2 12.68 -2 12 C-1.01 12 -0.02 12 1 12 C0.835 11.505 0.67 11.01 0.5 10.5 C-0.20688818 6.96555911 -0.06005155 3.60309299 0 0 Z " fill="#EE8E4E" transform="translate(182,226)"/>
<path d="M0 0 C0.33 0 0.66 0 1 0 C5.51923077 27.64423077 5.51923077 27.64423077 5 41 C3.33222181 38.04342645 2.68320167 35.67836229 2.40234375 32.3046875 C2.28342773 30.98404297 2.28342773 30.98404297 2.16210938 29.63671875 C2.08798828 28.72535156 2.01386719 27.81398438 1.9375 26.875 C1.78345789 25.05959458 1.62606884 23.2444691 1.46484375 21.4296875 C1.36610962 20.22675049 1.36610962 20.22675049 1.26538086 18.99951172 C1.10130883 16.93124514 1.10130883 16.93124514 0 15 C-0.0716735 12.44842345 -0.09308442 9.92527029 -0.0625 7.375 C-0.05798828 6.66859375 -0.05347656 5.9621875 -0.04882812 5.234375 C-0.03703875 3.48954725 -0.01910324 1.744763 0 0 Z " fill="#EF9759" transform="translate(197,315)"/>
<path d="M0 0 C0.33 0 0.66 0 1 0 C1.02505615 1.13542236 1.0501123 2.27084473 1.07592773 3.44067383 C1.17005576 7.65075081 1.27026337 11.86066488 1.37231445 16.07055664 C1.41564287 17.89310904 1.45731947 19.71570148 1.49731445 21.53833008 C1.55506762 24.15718661 1.61874756 26.77584195 1.68359375 29.39453125 C1.70030624 30.21025101 1.71701874 31.02597076 1.73423767 31.8664093 C1.82013245 35.14179544 1.95752134 37.87256401 3 41 C2.91255992 43.5808926 2.77131505 46.11691478 2.5625 48.6875 C2.51029297 49.38939453 2.45808594 50.09128906 2.40429688 50.81445312 C2.27492135 52.54338054 2.13817469 54.27175355 2 56 C1.67 56 1.34 56 1 56 C-0.23714347 44.23528167 -0.11414025 32.50142584 -0.0625 20.6875 C-0.05747354 18.67513133 -0.05291266 16.66276143 -0.04882812 14.65039062 C-0.03791664 9.76689646 -0.02071559 4.88346201 0 0 Z " fill="#EF9559" transform="translate(164,218)"/>
<path d="M0 0 C3.71612259 3.02090144 6.10013541 6.27047912 7 11 C6.34 10.67 5.68 10.34 5 10 C5 9.34 5 8.68 5 8 C4.34 8 3.68 8 3 8 C2.67 8.66 2.34 9.32 2 10 C1.01 9.67 0.02 9.34 -1 9 C-1 6.36 -1 3.72 -1 1 C-3.64 1.66 -6.28 2.32 -9 3 C-9 4.65 -9 6.3 -9 8 C-9.33 8 -9.66 8 -10 8 C-10.1875 5.125 -10.1875 5.125 -10 2 C-6.19871623 -0.53418918 -4.50303968 -0.68690436 0 0 Z " fill="#F27D37" transform="translate(175,214)"/>
<path d="M0 0 C0.66 0.33 1.32 0.66 2 1 C3.4780676 1.10096856 4.95755117 1.18195638 6.4375 1.25 C10.71066775 1.67662866 10.71066775 1.67662866 13.125 4.375 C14 7 14 7 13 10 C12.0409375 8.515 12.0409375 8.515 11.0625 7 C9.2879776 4.81518341 8.47479282 4.08098473 5.6640625 3.6015625 C3.41622189 3.62283544 1.23189946 3.73742359 -1 4 C-0.67 2.68 -0.34 1.36 0 0 Z " fill="#F5CCAE" transform="translate(167,211)"/>
<path d="M0 0 C2.475 0.495 2.475 0.495 5 1 C4.67 2.32 4.34 3.64 4 5 C5.66666667 5.33333333 7.33333333 5.66666667 9 6 C10.66666667 6.33333333 12.33333333 6.66666667 14 7 C14 7.33 14 7.66 14 8 C9.40128146 7.79962011 5.92456281 7.56605886 1.9375 5.125 C0 3 0 3 0 0 Z " fill="#EF9B5D" transform="translate(179,384)"/>
<path d="M0 0 C0.33 0 0.66 0 1 0 C1.13277344 0.99902344 1.26554688 1.99804688 1.40234375 3.02734375 C1.57894531 4.31769531 1.75554687 5.60804688 1.9375 6.9375 C2.11152344 8.22527344 2.28554687 9.51304687 2.46484375 10.83984375 C2.66162423 13.85466313 2.66162423 13.85466313 4 15 C4.14115161 17.67058851 4.04247107 20.32432238 4 23 C-0.48355057 16.27467414 -0.30050602 7.84654605 0 0 Z " fill="#ED925C" transform="translate(175,361)"/>
<path d="M0 0 C7.42857143 -0.28571429 7.42857143 -0.28571429 11 2 C10.34 2 9.68 2 9 2 C8.67 2.66 8.34 3.32 8 4 C8 3.34 8 2.68 8 2 C6.02 2.66 4.04 3.32 2 4 C2.33 5.65 2.66 7.3 3 9 C2.01 8.67 1.02 8.34 0 8 C0 5.36 0 2.72 0 0 Z " fill="#F39C5F" transform="translate(186,373)"/>
<path d="M0 0 C1.65 0 3.3 0 5 0 C4.01 4.62 3.02 9.24 2 14 C1.67 14 1.34 14 1 14 C0.67 9.38 0.34 4.76 0 0 Z " fill="#F0EDE7" transform="translate(183,80)"/>
<path d="M0 0 C0.33 0 0.66 0 1 0 C1.33 4.29 1.66 8.58 2 13 C0 12 0 12 -1 9 C-1.99 8.67 -2.98 8.34 -4 8 C-4 7.01 -4 6.02 -4 5 C-3.01 5 -2.02 5 -1 5 C-0.67 3.35 -0.34 1.7 0 0 Z " fill="#F1F1EB" transform="translate(179,205)"/>
<path d="M0 0 C0.66 0 1.32 0 2 0 C2 0.66 2 1.32 2 2 C4.64 2 7.28 2 10 2 C9.67 2.66 9.34 3.32 9 4 C6.03 4 3.06 4 0 4 C-0.33 3.34 -0.66 2.68 -1 2 C-0.67 1.34 -0.34 0.68 0 0 Z " fill="#F2813A" transform="translate(188,387)"/>
<path d="M0 0 C0.99 0.33 1.98 0.66 3 1 C3.6875 3.0625 3.6875 3.0625 4 5 C3.01 5 2.02 5 1 5 C0.67 5.99 0.34 6.98 0 8 C0 5.36 0 2.72 0 0 Z " fill="#F77E30" transform="translate(176,362)"/>
</svg>
