<?xml version="1.0" encoding="UTF-8"?>
<svg version="1.1" xmlns="http://www.w3.org/2000/svg" width="500" height="500">
<path d="M0 0 C2.24115611 1.81548109 4.12559348 3.53983037 6.09765625 5.609375 C6.65440536 6.17319885 7.21115448 6.73702271 7.78477478 7.31793213 C9.55614955 9.11718043 11.30935871 10.93299858 13.0625 12.75 C14.24427295 13.95687571 15.42720507 15.16261751 16.61132812 16.3671875 C18.79512187 18.59168543 20.97185703 20.82261354 23.14086914 23.06152344 C26.43036584 26.45139184 29.72656827 29.82817187 33.203125 33.02734375 C38.74227864 38.19651575 38.74227864 38.19651575 40.0625 42.3125 C40 45 40 45 39 48 C38.34 48 37.68 48 37 48 C36.731875 48.639375 36.46375 49.27875 36.1875 49.9375 C35 52 35 52 32 53 C31.26676204 55.01508358 31.26676204 55.01508358 31 57 C31.74443359 57.61875 31.74443359 57.61875 32.50390625 58.25 C36.89192547 61.98023266 40.73455941 65.82255034 44.359375 70.30078125 C46.12039448 72.12469428 47.72587475 72.92877348 50 74 C53.01329117 71.16034706 56.00261628 68.29773424 58.97216797 65.41235352 C59.98448107 64.435143 61.00300118 63.4643188 62.02783203 62.50024414 C63.50429724 61.10915277 64.95654752 59.69624115 66.40625 58.27734375 C67.28603516 57.43421631 68.16582031 56.59108887 69.07226562 55.72241211 C71.52697441 52.2557888 71.29206396 50.16402345 71 46 C72.00497869 42.05739129 73.22131268 39.0102446 76 36 C76.66 36 77.32 36 78 36 C78 35.34 78 34.68 78 34 C78.66 34 79.32 34 80 34 C80.268125 33.360625 80.53625 32.72125 80.8125 32.0625 C82 30 82 30 85 29 C85 28.34 85 27.68 85 27 C85.66 27 86.32 27 87 27 C87 26.34 87 25.68 87 25 C87.66 25 88.32 25 89 25 C89 24.34 89 23.68 89 23 C90.43442292 21.79908779 91.87328971 20.60286158 93.33984375 19.44140625 C95.03116131 17.97294465 96.36134039 16.44094183 97.75 14.6875 C98.86375 13.3571875 98.86375 13.3571875 100 12 C100.66 12 101.32 12 102 12 C102 11.34 102 10.68 102 10 C102.66 10 103.32 10 104 10 C104 9.34 104 8.68 104 8 C104.66 8 105.32 8 106 8 C106.3403125 7.13375 106.3403125 7.13375 106.6875 6.25 C108.38050483 3.347706 110.18146859 1.81191305 113 0 C116.06895468 0 116.97515701 0.97722726 119.25 3.0625 C119.8275 3.701875 120.405 4.34125 121 5 C119.71208959 8.73673069 118.29146482 11.07134198 115.46826172 13.82470703 C114.38736771 14.89073654 114.38736771 14.89073654 113.28463745 15.978302 C112.50750397 16.73054047 111.73037048 17.48277893 110.9296875 18.2578125 C110.13345978 19.04268036 109.33723206 19.82754822 108.51687622 20.63619995 C105.9766621 23.13979478 103.42706053 25.63348543 100.875 28.125 C97.50973176 31.41075881 94.15430027 34.70610412 90.8046875 38.0078125 C90.02350555 38.76409943 89.24232361 39.52038635 88.43746948 40.29959106 C87.7231778 41.00397308 87.00888611 41.7083551 86.27294922 42.43408203 C85.6394455 43.05187531 85.00594177 43.66966858 84.35324097 44.30618286 C82.68790746 46.02930286 82.68790746 46.02930286 83 49 C86.56549777 48.42084034 88.19567303 47.16077966 90.6953125 44.59765625 C91.75661377 43.52149048 91.75661377 43.52149048 92.83935547 42.42358398 C93.97074951 41.25484741 93.97074951 41.25484741 95.125 40.0625 C96.3008667 38.86959351 96.3008667 38.86959351 97.50048828 37.65258789 C100.00761898 35.10877113 102.50489492 32.55560994 105 30 C108.28310314 26.6372835 111.57584645 23.28446245 114.875 19.9375 C115.6292627 19.15834229 116.38352539 18.37918457 117.16064453 17.57641602 C117.86817871 16.85897217 118.57571289 16.14152832 119.3046875 15.40234375 C120.2325708 14.45089478 120.2325708 14.45089478 121.17919922 13.48022461 C123.18927761 11.84612629 124.41828202 11.19996485 127 11 C129.8125 13.1875 129.8125 13.1875 132 16 C132.125 18 132.125 18 131 20 C129.37897032 21.71108689 127.70496537 23.37253306 126 25 C124.8553125 26.423125 124.8553125 26.423125 123.6875 27.875 C121.0852387 31.07652021 118.04058455 33.61472658 114.90625 36.28125 C112.79047716 38.10720529 112.79047716 38.10720529 110.5 41 C107.87029093 44.15565088 105.04123972 46.67421075 101.92578125 49.33203125 C98.92601754 51.93020388 96.13594795 54.72205856 93.5 57.6875 C88.70210585 61.88565738 82.99526932 61.20954339 77 61 C76.75378906 61.58523437 76.50757813 62.17046875 76.25390625 62.7734375 C74.80626232 65.34402017 73.20757518 66.75455693 70.9375 68.625 C68.02124288 70.95485552 68.02124288 70.95485552 66 74 C65.34 74 64.68 74 64 74 C63.505 75.485 63.505 75.485 63 77 C62.34 77 61.68 77 61 77 C60.505 78.485 60.505 78.485 60 80 C59.34 80 58.68 80 58 80 C58 80.66 58 81.32 58 82 C56.625 83.625 56.625 83.625 55 85 C54.34 85 53.68 85 53 85 C52.7525 85.61875 52.505 86.2375 52.25 86.875 C50.79371361 89.35068687 49.62187494 89.95125002 47 91 C47 91.66 47 92.32 47 93 C44.625 95.625 44.625 95.625 42 98 C41.34 98 40.68 98 40 98 C39.505 99.485 39.505 99.485 39 101 C38.34 101 37.68 101 37 101 C37 101.66 37 102.32 37 103 C36.360625 103.53625 35.72125 104.0725 35.0625 104.625 C32.12424829 108.00844137 32.35709025 110.57208094 32 115 C31.67 115.66 31.34 116.32 31 117 C30.34 117 29.68 117 29 117 C28.731875 117.639375 28.46375 118.27875 28.1875 118.9375 C27 121 27 121 24 122 C24 122.66 24 123.32 24 124 C22.33784732 125.33895632 20.67036393 126.67130142 19 128 C18.278125 128.9075 17.55625 129.815 16.8125 130.75 C15.9153125 131.86375 15.9153125 131.86375 15 133 C14.34 133 13.68 133 13 133 C13 133.66 13 134.32 13 135 C11.34997172 136.35386936 9.6825613 137.68678142 8 139 C7.67 139.66 7.34 140.32 7 141 C6.34 141 5.68 141 5 141 C4.731875 141.61875 4.46375 142.2375 4.1875 142.875 C3 145 3 145 0 147 C-4.92926559 146.9087173 -7.60969197 144.02623427 -10.875 140.6875 C-11.38546875 140.20087891 -11.8959375 139.71425781 -12.421875 139.21289062 C-13.8671875 137.76171875 -13.8671875 137.76171875 -16 135 C-15.73464741 131.32603051 -13.91989479 129.56734354 -11.359375 127.06640625 C-10.61816406 126.33486328 -9.87695312 125.60332031 -9.11328125 124.84960938 C-8.33339844 124.09486328 -7.55351562 123.34011719 -6.75 122.5625 C-5.98558594 121.81162109 -5.22117188 121.06074219 -4.43359375 120.28710938 C-2.29398509 118.1863019 -0.14750588 116.09272799 2 114 C4.53425962 111.50533819 6.99010228 109.01107758 9.359375 106.359375 C10.14828125 105.49828125 10.9371875 104.6371875 11.75 103.75 C12.52859375 102.87859375 13.3071875 102.0071875 14.109375 101.109375 C17.1544838 98.88726858 17.78262173 98.78872598 21.32421875 98.67578125 C27.34894157 98.29868797 30.18246877 94.72389906 34.0625 90.4375 C34.73732422 89.72658203 35.41214844 89.01566406 36.10742188 88.28320312 C37.75802351 86.53895033 39.38698401 84.77894444 41 83 C37.07711742 78.29658874 32.98981304 73.85726049 28.625 69.5625 C28.07972656 69.02173828 27.53445312 68.48097656 26.97265625 67.92382812 C25.65076536 66.61353277 24.32572382 65.30641716 23 64 C19.63251488 65.51947499 18.39159663 66.52100842 17 70 C16.34 70 15.68 70 15 70 C15 70.66 15 71.32 15 72 C11.58106196 74.07578381 11.58106196 74.07578381 9.09474182 73.75151062 C6.60437368 72.8580649 5.18944065 71.69125178 3.23413086 69.91333008 C2.53681854 69.28028961 1.83950623 68.64724915 1.12106323 67.99502563 C-2.22518598 64.84761689 -5.50284222 61.63998516 -8.74609375 58.38671875 C-9.44267593 57.69109329 -10.13925812 56.99546783 -10.85694885 56.27876282 C-12.31267999 54.82370654 -13.7671718 53.36740937 -15.22045898 51.90991211 C-17.45247268 49.67249105 -19.68984135 47.44052323 -21.92773438 45.20898438 C-23.34667534 43.78938346 -24.76530654 42.36947283 -26.18359375 40.94921875 C-26.85329697 40.28153976 -27.52300018 39.61386078 -28.21299744 38.9259491 C-28.82776443 38.30802994 -29.44253143 37.69011078 -30.07592773 37.0534668 C-30.61805405 36.51054489 -31.16018036 35.96762299 -31.71873474 35.4082489 C-33.71238797 33.21700868 -33.99555701 32.06960677 -34.1875 29.0625 C-34 26 -34 26 -32 23 C-31.34 23 -30.68 23 -30 23 C-29.7525 22.4225 -29.505 21.845 -29.25 21.25 C-27.81700012 18.67060021 -26.21575324 16.93878408 -24 15 C-23.34 15 -22.68 15 -22 15 C-21.67 14.01 -21.34 13.02 -21 12 C-20.34 12 -19.68 12 -19 12 C-19 11.34 -19 10.68 -19 10 C-18.34 10 -17.68 10 -17 10 C-16.7421875 9.40574219 -16.484375 8.81148437 -16.21875 8.19921875 C-14.90163023 5.822493 -13.58656066 4.53214427 -11.5 2.8125 C-10.58734375 2.04873047 -10.58734375 2.04873047 -9.65625 1.26953125 C-6.1636105 -1.40760988 -4.22433195 -1.18459935 0 0 Z M-5 11 C-4.07347299 12.17539996 -3.13336613 13.34010577 -2.1875 14.5 C-1.66542969 15.1496875 -1.14335937 15.799375 -0.60546875 16.46875 C0.99204833 18.34509128 0.99204833 18.34509128 4 18 C2.88121617 16.82737096 1.75476949 15.66204862 0.625 14.5 C-0.00148438 13.8503125 -0.62796875 13.200625 -1.2734375 12.53125 C-2.86475907 10.77882569 -2.86475907 10.77882569 -5 11 Z M-11 17 C-10.01 17.99 -9.02 18.98 -8 20 C-8.33 19.01 -8.66 18.02 -9 17 C-9.66 17 -10.32 17 -11 17 Z M4 19 C5.40844718 22.21524305 7.10344786 24.32183868 9.625 26.75 C10.25664062 27.36359375 10.88828125 27.9771875 11.5390625 28.609375 C12.02117187 29.06828125 12.50328125 29.5271875 13 30 C13.66 29.67 14.32 29.34 15 29 C13.35718838 27.33035479 11.71067239 25.6643536 10.0625 24 C9.14597656 23.071875 8.22945312 22.14375 7.28515625 21.1875 C5.40683762 18.88474951 5.40683762 18.88474951 4 19 Z M-8 20 C-4.6189962 24.13621084 -1.33409466 27.81316569 3 31 C1.60249952 27.84164893 -0.05198234 25.67727175 -2.5 23.25 C-3.1084375 22.63640625 -3.716875 22.0228125 -4.34375 21.390625 C-5.89484277 19.78565912 -5.89484277 19.78565912 -8 20 Z M-17 23 C-17 23.66 -17 24.32 -17 25 C-15.63406619 26.38346069 -15.63406619 26.38346069 -13.78125 27.84765625 C-7.68279758 33.03322305 -2.1338413 38.75927797 3.5 44.4375 C4.61955632 45.5620833 5.73934629 46.68643405 6.859375 47.81054688 C9.57561534 50.53769344 12.28868292 53.26795907 15 56 C15.30011913 53.08740756 15.30011913 53.08740756 13.87454224 51.50032043 C13.34762787 50.97403549 12.8207135 50.44775055 12.27783203 49.90551758 C11.68366486 49.30512161 11.08949768 48.70472565 10.47732544 48.08613586 C9.82738617 47.44540634 9.1774469 46.80467682 8.5078125 46.14453125 C7.8466745 45.48289474 7.1855365 44.82125824 6.50436401 44.13957214 C5.10399238 42.74154289 3.6999219 41.34721045 2.29248047 39.95629883 C0.13202327 37.81944653 -2.01479944 35.66957919 -4.16015625 33.51757812 C-5.52004247 32.16326792 -6.88069407 30.80972571 -8.2421875 29.45703125 C-8.88807831 28.81022903 -9.53396912 28.16342682 -10.19943237 27.49702454 C-10.79990387 26.90608505 -11.40037537 26.31514557 -12.01904297 25.70629883 C-12.54754852 25.18240067 -13.07605408 24.6585025 -13.62057495 24.11872864 C-14.96288428 22.79003477 -14.96288428 22.79003477 -17 23 Z M-21 30 C-20.34 31.32 -19.68 32.64 -19 34 C-18.34 33.67 -17.68 33.34 -17 33 C-18.32 32.01 -19.64 31.02 -21 30 Z M15 30 C15 30.66 15 31.32 15 32 C15.66 31.67 16.32 31.34 17 31 C16.34 30.67 15.68 30.34 15 30 Z M3 31 C6.9419417 35.88049925 11.11950075 40.0580583 16 44 C14.46781315 40.36938333 12.2816856 38.0136227 9.5 35.25 C8.7059375 34.45078125 7.911875 33.6515625 7.09375 32.828125 C5.21216538 30.78076391 5.21216538 30.78076391 3 31 Z M17 32 C18.47721422 35.45201639 20.43794001 37.64961936 23.125 40.25 C23.84945312 40.95640625 24.57390625 41.6628125 25.3203125 42.390625 C25.87460938 42.92171875 26.42890625 43.4528125 27 44 C27.32490892 40.88411274 27.32490892 40.88411274 25.06640625 38.73828125 C24.24011719 37.93777344 23.41382813 37.13726562 22.5625 36.3125 C21.73878906 35.50425781 20.91507813 34.69601563 20.06640625 33.86328125 C18.3399588 31.88838958 18.3399588 31.88838958 17 32 Z M-17 34 C-15.95125002 36.62187494 -15.35068687 37.79371361 -12.875 39.25 C-12.25625 39.4975 -11.6375 39.745 -11 40 C-12.64169528 37.97945196 -14.30911778 35.97956942 -16 34 C-16.33 34 -16.66 34 -17 34 Z M-11 40 C-10.67 40.99 -10.34 41.98 -10 43 C-9.34 42.67 -8.68 42.34 -8 42 C-8.99 41.34 -9.98 40.68 -11 40 Z M-8 43 C-7.34 44.32 -6.68 45.64 -6 47 C-5.34 46.67 -4.68 46.34 -4 46 C-5.32 45.01 -6.64 44.02 -8 43 Z M16 44 C17.65 45.98 19.3 47.96 21 50 C21.66 49.67 22.32 49.34 23 49 C21.37660195 47.29115995 19.70680947 45.62553283 18 44 C17.34 44 16.68 44 16 44 Z M-4 47 C-3.34 48.32 -2.68 49.64 -2 51 C-1.34 50.67 -0.68 50.34 0 50 C-1.32 49.01 -2.64 48.02 -4 47 Z M0 51 C1.40844718 54.21524305 3.10344786 56.32183868 5.625 58.75 C6.25664062 59.36359375 6.88828125 59.9771875 7.5390625 60.609375 C8.02117187 61.06828125 8.50328125 61.5271875 9 62 C9.32145864 58.93842027 9.32145864 58.93842027 7.28515625 56.95703125 C6.55167969 56.24933594 5.81820312 55.54164063 5.0625 54.8125 C4.33160156 54.09707031 3.60070312 53.38164062 2.84765625 52.64453125 C1.28775827 50.88919103 1.28775827 50.88919103 0 51 Z " fill="#FB7827" transform="translate(200,128)"/>
<path d="M0 0 C2.51708984 1.94946289 2.51708984 1.94946289 4.9609375 4.47265625 C5.84394531 5.37177734 6.72695312 6.27089844 7.63671875 7.19726562 C8.54035156 8.14279297 9.44398438 9.08832031 10.375 10.0625 C11.31002638 11.02262668 12.24621375 11.98162417 13.18359375 12.93945312 C15.4673937 15.2821139 17.7387109 17.63563671 20 20 C16.28125 21.1171875 16.28125 21.1171875 13.75 20.0625 C12.88375 19.5365625 12.88375 19.5365625 12 19 C12 18.01 12 17.02 12 16 C11.34 15.67 10.68 15.34 10 15 C10 14.01 10 13.02 10 12 C8.35 12.33 6.7 12.66 5 13 C4.67 14.32 4.34 15.64 4 17 C4.66 17 5.32 17 6 17 C5.75636719 17.57363281 5.51273438 18.14726562 5.26171875 18.73828125 C4.72159367 21.13265086 4.72159367 21.13265086 6.58203125 23.10546875 C7.31808594 23.79253906 8.05414063 24.47960937 8.8125 25.1875 C9.54082031 25.88230469 10.26914063 26.57710937 11.01953125 27.29296875 C12.89252521 29.0484323 12.89252521 29.0484323 15 30 C15 30.66 15 31.32 15 32 C15.66 32 16.32 32 17 32 C18.62109375 33.6796875 18.62109375 33.6796875 20.4375 35.875 C22.58400884 38.46193722 24.16776562 40.11184374 27 42 C26.67 41.34 26.34 40.68 26 40 C26.99 40 27.98 40 29 40 C29 41.65 29 43.3 29 45 C26.525 45.495 26.525 45.495 24 46 C24 47.65 24 49.3 24 51 C22.68 51 21.36 51 20 51 C20 50.34 20 49.68 20 49 C18.7934375 48.814375 18.7934375 48.814375 17.5625 48.625 C16.716875 48.41875 15.87125 48.2125 15 48 C14.67 47.34 14.34 46.68 14 46 C13.01 45.67 12.02 45.34 11 45 C11.495 47.475 11.495 47.475 12 50 C5.84742994 44.92476095 0.28327436 39.36466744 -5.3125 33.6875 C-7.09795449 31.87662979 -8.88560159 30.06791792 -10.67578125 28.26171875 C-11.45864502 27.46725342 -12.24150879 26.67278809 -13.0480957 25.85424805 C-14.86885984 23.94399053 -14.86885984 23.94399053 -17 23 C-17 23.66 -17 24.32 -17 25 C-16.40237854 25.27230438 -15.80475708 25.54460876 -15.18902588 25.82516479 C-13.04985857 26.97324125 -11.67404464 28.08346405 -9.97558594 29.79736328 C-9.41530701 30.35779327 -8.85502808 30.91822327 -8.277771 31.49563599 C-7.68595032 32.09777924 -7.09412964 32.69992249 -6.484375 33.3203125 C-5.86854553 33.93897186 -5.25271606 34.55763123 -4.6182251 35.19503784 C-2.65739664 37.16703814 -0.70364699 39.14588737 1.25 41.125 C2.58026799 42.46530164 3.910992 43.80515083 5.2421875 45.14453125 C8.5001015 48.42446589 11.75168533 51.71055942 15 55 C14.67 54.01 14.34 53.02 14 52 C15.32 52.66 16.64 53.32 18 54 C17.67 54.99 17.34 55.98 17 57 C14.525 57.495 14.525 57.495 12 58 C12 59.65 12 61.3 12 63 C10.68 63 9.36 63 8 63 C8 62.34 8 61.68 8 61 C4.535 61.495 4.535 61.495 1 62 C1.33 60.02 1.66 58.04 2 56 C-0.475 56.495 -0.475 56.495 -3 57 C-3 57.99 -3 58.98 -3 60 C-2.01 60 -1.02 60 0 60 C0 61.65 0 63.3 0 65 C1.98 64.505 1.98 64.505 4 64 C4.2475 65.175625 4.2475 65.175625 4.5 66.375 C5.70396899 69.1093471 5.70396899 69.1093471 7.9140625 69.77734375 C9.92516699 70.26413052 11.962638 70.63853255 14 71 C13.79503906 70.38640625 13.59007812 69.7728125 13.37890625 69.140625 C13.25386719 68.43421875 13.12882812 67.7278125 13 67 C14.9375 64.75 14.9375 64.75 17 63 C17 63.66 17 64.32 17 65 C18.32 65.33 19.64 65.66 21 66 C20.34 66 19.68 66 19 66 C18.34 67.32 17.68 68.64 17 70 C16.34 70 15.68 70 15 70 C15 70.66 15 71.32 15 72 C11.58106196 74.07578381 11.58106196 74.07578381 9.09474182 73.75151062 C6.60437368 72.8580649 5.18944065 71.69125178 3.23413086 69.91333008 C2.53681854 69.28028961 1.83950623 68.64724915 1.12106323 67.99502563 C-2.22518598 64.84761689 -5.50284222 61.63998516 -8.74609375 58.38671875 C-9.44267593 57.69109329 -10.13925812 56.99546783 -10.85694885 56.27876282 C-12.31267999 54.82370654 -13.7671718 53.36740937 -15.22045898 51.90991211 C-17.45247268 49.67249105 -19.68984135 47.44052323 -21.92773438 45.20898438 C-23.34667534 43.78938346 -24.76530654 42.36947283 -26.18359375 40.94921875 C-26.85329697 40.28153976 -27.52300018 39.61386078 -28.21299744 38.9259491 C-28.82776443 38.30802994 -29.44253143 37.69011078 -30.07592773 37.0534668 C-30.61805405 36.51054489 -31.16018036 35.96762299 -31.71873474 35.4082489 C-33.71238797 33.21700868 -33.99555701 32.06960677 -34.1875 29.0625 C-34 26 -34 26 -32 23 C-31.34 23 -30.68 23 -30 23 C-29.7525 22.4225 -29.505 21.845 -29.25 21.25 C-27.81700012 18.67060021 -26.21575324 16.93878408 -24 15 C-23.34 15 -22.68 15 -22 15 C-21.67 14.01 -21.34 13.02 -21 12 C-20.34 12 -19.68 12 -19 12 C-19 11.34 -19 10.68 -19 10 C-18.34 10 -17.68 10 -17 10 C-16.7421875 9.40574219 -16.484375 8.81148437 -16.21875 8.19921875 C-14.90163023 5.822493 -13.58656066 4.53214427 -11.5 2.8125 C-10.58734375 2.04873047 -10.58734375 2.04873047 -9.65625 1.26953125 C-6.17259284 -1.40072483 -4.21638629 -1.11469541 0 0 Z M-5 11 C-4.07347299 12.17539996 -3.13336613 13.34010577 -2.1875 14.5 C-1.66542969 15.1496875 -1.14335937 15.799375 -0.60546875 16.46875 C0.99204833 18.34509128 0.99204833 18.34509128 4 18 C2.88121617 16.82737096 1.75476949 15.66204862 0.625 14.5 C-0.00148438 13.8503125 -0.62796875 13.200625 -1.2734375 12.53125 C-2.86475907 10.77882569 -2.86475907 10.77882569 -5 11 Z M-11 17 C-10.01 17.99 -9.02 18.98 -8 20 C-8.33 19.01 -8.66 18.02 -9 17 C-9.66 17 -10.32 17 -11 17 Z M-8 20 C-4.6189962 24.13621084 -1.33409466 27.81316569 3 31 C1.60249952 27.84164893 -0.05198234 25.67727175 -2.5 23.25 C-3.1084375 22.63640625 -3.716875 22.0228125 -4.34375 21.390625 C-5.89484277 19.78565912 -5.89484277 19.78565912 -8 20 Z M-21 30 C-20.34 31.32 -19.68 32.64 -19 34 C-18.34 33.67 -17.68 33.34 -17 33 C-18.32 32.01 -19.64 31.02 -21 30 Z M3 31 C6.9419417 35.88049925 11.11950075 40.0580583 16 44 C14.46781315 40.36938333 12.2816856 38.0136227 9.5 35.25 C8.7059375 34.45078125 7.911875 33.6515625 7.09375 32.828125 C5.21216538 30.78076391 5.21216538 30.78076391 3 31 Z M-17 34 C-15.95125002 36.62187494 -15.35068687 37.79371361 -12.875 39.25 C-12.25625 39.4975 -11.6375 39.745 -11 40 C-12.64169528 37.97945196 -14.30911778 35.97956942 -16 34 C-16.33 34 -16.66 34 -17 34 Z M-11 40 C-10.67 40.99 -10.34 41.98 -10 43 C-9.34 42.67 -8.68 42.34 -8 42 C-8.99 41.34 -9.98 40.68 -11 40 Z M-8 43 C-7.34 44.32 -6.68 45.64 -6 47 C-5.34 46.67 -4.68 46.34 -4 46 C-5.32 45.01 -6.64 44.02 -8 43 Z M16 44 C17.65 45.98 19.3 47.96 21 50 C21.66 49.67 22.32 49.34 23 49 C21.37660195 47.29115995 19.70680947 45.62553283 18 44 C17.34 44 16.68 44 16 44 Z M-4 47 C-3.34 48.32 -2.68 49.64 -2 51 C-1.34 50.67 -0.68 50.34 0 50 C-1.32 49.01 -2.64 48.02 -4 47 Z M0 51 C1.40844718 54.21524305 3.10344786 56.32183868 5.625 58.75 C6.25664062 59.36359375 6.88828125 59.9771875 7.5390625 60.609375 C8.02117187 61.06828125 8.50328125 61.5271875 9 62 C9.32145864 58.93842027 9.32145864 58.93842027 7.28515625 56.95703125 C6.55167969 56.24933594 5.81820312 55.54164063 5.0625 54.8125 C4.33160156 54.09707031 3.60070312 53.38164062 2.84765625 52.64453125 C1.28775827 50.88919103 1.28775827 50.88919103 0 51 Z " fill="#F87E30" transform="translate(200,128)"/>
<path d="M0 0 C2.4697574 1.2747135 4.08435968 2.94830893 5.9375 5 C4.64958959 8.73673069 3.22896482 11.07134198 0.40576172 13.82470703 C-0.31483429 14.53539337 -1.0354303 15.24607971 -1.77786255 15.978302 C-2.55499603 16.73054047 -3.33212952 17.48277893 -4.1328125 18.2578125 C-4.92904022 19.04268036 -5.72526794 19.82754822 -6.54562378 20.63619995 C-9.0858379 23.13979478 -11.63543947 25.63348543 -14.1875 28.125 C-17.55276824 31.41075881 -20.90819973 34.70610412 -24.2578125 38.0078125 C-25.03899445 38.76409943 -25.82017639 39.52038635 -26.62503052 40.29959106 C-27.3393222 41.00397308 -28.05361389 41.7083551 -28.78955078 42.43408203 C-29.4230545 43.05187531 -30.05655823 43.66966858 -30.70925903 44.30618286 C-32.37459254 46.02930286 -32.37459254 46.02930286 -32.0625 49 C-28.49700223 48.42084034 -26.86682697 47.16077966 -24.3671875 44.59765625 C-23.30588623 43.52149048 -23.30588623 43.52149048 -22.22314453 42.42358398 C-21.46888184 41.64442627 -20.71461914 40.86526855 -19.9375 40.0625 C-18.7616333 38.86959351 -18.7616333 38.86959351 -17.56201172 37.65258789 C-15.05488102 35.10877113 -12.55760508 32.55560994 -10.0625 30 C-6.77939686 26.6372835 -3.48665355 23.28446245 -0.1875 19.9375 C0.5667627 19.15834229 1.32102539 18.37918457 2.09814453 17.57641602 C2.80567871 16.85897217 3.51321289 16.14152832 4.2421875 15.40234375 C5.1700708 14.45089478 5.1700708 14.45089478 6.11669922 13.48022461 C8.12677761 11.84612629 9.35578202 11.19996485 11.9375 11 C14.75 13.1875 14.75 13.1875 16.9375 16 C17.0625 18 17.0625 18 15.9375 20 C14.31647032 21.71108689 12.64246537 23.37253306 10.9375 25 C9.7928125 26.423125 9.7928125 26.423125 8.625 27.875 C6.0227387 31.07652021 2.97808455 33.61472658 -0.15625 36.28125 C-2.27202284 38.10720529 -2.27202284 38.10720529 -4.5625 41 C-7.19220907 44.15565088 -10.02126028 46.67421075 -13.13671875 49.33203125 C-16.13648246 51.93020388 -18.92655205 54.72205856 -21.5625 57.6875 C-26.36039415 61.88565738 -32.06723068 61.20954339 -38.0625 61 C-38.495625 61.928125 -38.495625 61.928125 -38.9375 62.875 C-40.0625 65 -40.0625 65 -42.0625 67 C-44.6875 67.125 -44.6875 67.125 -47.0625 67 C-47.0625 67.66 -47.0625 68.32 -47.0625 69 C-48.0525 68.67 -49.0425 68.34 -50.0625 68 C-50.3925 68.99 -50.7225 69.98 -51.0625 71 C-52.0525 71.495 -52.0525 71.495 -53.0625 72 C-53.0625 72.66 -53.0625 73.32 -53.0625 74 C-55.3725 74 -57.6825 74 -60.0625 74 C-58.68426899 69.48942577 -56.67371832 67.88897465 -53.0625 65 C-52.77375 64.236875 -52.485 63.47375 -52.1875 62.6875 C-50.95841829 59.75136036 -49.77777412 58.71720506 -47.4375 56.625 C-44.36057214 53.71804537 -44.36057214 53.71804537 -43.75 49.4375 C-43.853125 48.303125 -43.95625 47.16875 -44.0625 46 C-43.05752131 42.05739129 -41.84118732 39.0102446 -39.0625 36 C-38.4025 36 -37.7425 36 -37.0625 36 C-37.0625 35.34 -37.0625 34.68 -37.0625 34 C-36.4025 34 -35.7425 34 -35.0625 34 C-34.794375 33.360625 -34.52625 32.72125 -34.25 32.0625 C-33.0625 30 -33.0625 30 -30.0625 29 C-30.0625 28.34 -30.0625 27.68 -30.0625 27 C-29.4025 27 -28.7425 27 -28.0625 27 C-28.0625 26.34 -28.0625 25.68 -28.0625 25 C-27.4025 25 -26.7425 25 -26.0625 25 C-26.0625 24.34 -26.0625 23.68 -26.0625 23 C-24.62807708 21.79908779 -23.18921029 20.60286158 -21.72265625 19.44140625 C-20.03133869 17.97294465 -18.70115961 16.44094183 -17.3125 14.6875 C-16.57 13.800625 -15.8275 12.91375 -15.0625 12 C-14.4025 12 -13.7425 12 -13.0625 12 C-13.0625 11.34 -13.0625 10.68 -13.0625 10 C-12.4025 10 -11.7425 10 -11.0625 10 C-11.0625 9.34 -11.0625 8.68 -11.0625 8 C-10.4025 8 -9.7425 8 -9.0625 8 C-8.7221875 7.13375 -8.7221875 7.13375 -8.375 6.25 C-6.45664716 2.96139514 -4.03104862 0 0 0 Z " fill="#FA7827" transform="translate(315.0625,128)"/>
<path d="M0 0 C2.6919864 1.09692156 3.87791549 2.55157059 5.71484375 4.7890625 C6.30523437 5.49933594 6.895625 6.20960938 7.50390625 6.94140625 C8.02726562 7.57175781 8.550625 8.20210937 9.08984375 8.8515625 C11.49558559 11.25730434 12.1273146 11.05948174 15.40234375 11.1640625 C20.23343737 11.61095792 21.92172586 13.09984395 25.08984375 16.8515625 C26.94381988 18.44403042 28.8335609 19.98347892 30.734375 21.51953125 C31.18167969 21.95910156 31.62898438 22.39867187 32.08984375 22.8515625 C32.08984375 23.5115625 32.08984375 24.1715625 32.08984375 24.8515625 C32.74984375 24.8515625 33.40984375 24.8515625 34.08984375 24.8515625 C34.08984375 25.5115625 34.08984375 26.1715625 34.08984375 26.8515625 C34.74984375 26.8515625 35.40984375 26.8515625 36.08984375 26.8515625 C36.64671875 27.5528125 37.20359375 28.2540625 37.77734375 28.9765625 C39.66245726 31.32021713 41.30564735 32.96355434 43.58984375 34.8515625 C46.50549764 37.26774677 48.77168631 39.8465436 51.08984375 42.8515625 C52.07984375 43.3465625 52.07984375 43.3465625 53.08984375 43.8515625 C52.54260692 47.22618965 52.03494375 48.9339125 50.08984375 51.8515625 C49.42984375 51.8515625 48.76984375 51.8515625 48.08984375 51.8515625 C47.84234375 52.4290625 47.59484375 53.0065625 47.33984375 53.6015625 C45.82517592 56.3279646 44.62579623 58.00100258 42.08984375 59.8515625 C38.33984375 59.6015625 38.33984375 59.6015625 35.08984375 58.8515625 C34.75984375 57.8615625 34.42984375 56.8715625 34.08984375 55.8515625 C33.42984375 55.8515625 32.76984375 55.8515625 32.08984375 55.8515625 C30.65234375 54.35546875 30.65234375 54.35546875 29.08984375 52.4140625 C26.94459331 49.69968012 26.94459331 49.69968012 24.08984375 47.8515625 C24.08984375 47.1915625 24.08984375 46.5315625 24.08984375 45.8515625 C22.60484375 45.3565625 22.60484375 45.3565625 21.08984375 44.8515625 C21.08984375 44.1915625 21.08984375 43.5315625 21.08984375 42.8515625 C20.42984375 42.8515625 19.76984375 42.8515625 19.08984375 42.8515625 C17.73597439 41.20153422 16.40306233 39.5341238 15.08984375 37.8515625 C14.42984375 37.5215625 13.76984375 37.1915625 13.08984375 36.8515625 C13.08984375 36.1915625 13.08984375 35.5315625 13.08984375 34.8515625 C12.42984375 34.8515625 11.76984375 34.8515625 11.08984375 34.8515625 C8.16219563 32.43644694 5.28607102 29.65482347 4.86328125 25.76953125 C4.87617188 25.05410156 4.8890625 24.33867187 4.90234375 23.6015625 C4.7775498 19.32186426 3.06663922 17.44160099 0.04956055 14.49511719 C-0.99789627 13.5327027 -2.06024377 12.58622152 -3.13745117 11.65722656 C-4.63671875 10.33203125 -4.63671875 10.33203125 -6.91015625 7.8515625 C-6.84045601 4.8598137 -5.95970764 3.91478324 -4.09765625 1.5390625 C-1.91015625 -0.1484375 -1.91015625 -0.1484375 0 0 Z " fill="#FB7725" transform="translate(260.91015625,215.1484375)"/>
<path d="M0 0 C2.4697574 1.2747135 4.08435968 2.94830893 5.9375 5 C4.64958959 8.73673069 3.22896482 11.07134198 0.40576172 13.82470703 C-0.31483429 14.53539337 -1.0354303 15.24607971 -1.77786255 15.978302 C-2.55499603 16.73054047 -3.33212952 17.48277893 -4.1328125 18.2578125 C-4.92904022 19.04268036 -5.72526794 19.82754822 -6.54562378 20.63619995 C-9.0858379 23.13979478 -11.63543947 25.63348543 -14.1875 28.125 C-17.55276824 31.41075881 -20.90819973 34.70610412 -24.2578125 38.0078125 C-25.42958542 39.14224289 -25.42958542 39.14224289 -26.62503052 40.29959106 C-27.69646805 41.35616409 -27.69646805 41.35616409 -28.78955078 42.43408203 C-29.4230545 43.05187531 -30.05655823 43.66966858 -30.70925903 44.30618286 C-32.37459254 46.02930286 -32.37459254 46.02930286 -32.0625 49 C-29.5875 48.505 -29.5875 48.505 -27.0625 48 C-26.7325 48.99 -26.4025 49.98 -26.0625 51 C-27.0525 51 -28.0425 51 -29.0625 51 C-29.0625 51.66 -29.0625 52.32 -29.0625 53 C-31.3725 52.34 -33.6825 51.68 -36.0625 51 C-35.4025 48.03 -34.7425 45.06 -34.0625 42 C-35.0525 42.66 -36.0425 43.32 -37.0625 44 C-37.0625 42.35 -37.0625 40.7 -37.0625 39 C-38.0525 38.67 -39.0425 38.34 -40.0625 38 C-39.7325 37.34 -39.4025 36.68 -39.0625 36 C-38.4025 36 -37.7425 36 -37.0625 36 C-37.0625 35.34 -37.0625 34.68 -37.0625 34 C-36.4025 34 -35.7425 34 -35.0625 34 C-34.6603125 33.0409375 -34.6603125 33.0409375 -34.25 32.0625 C-33.0625 30 -33.0625 30 -30.0625 29 C-30.0625 28.34 -30.0625 27.68 -30.0625 27 C-29.4025 27 -28.7425 27 -28.0625 27 C-28.0625 26.34 -28.0625 25.68 -28.0625 25 C-27.4025 25 -26.7425 25 -26.0625 25 C-26.0625 24.34 -26.0625 23.68 -26.0625 23 C-24.62807708 21.79908779 -23.18921029 20.60286158 -21.72265625 19.44140625 C-20.03133869 17.97294465 -18.70115961 16.44094183 -17.3125 14.6875 C-16.57 13.800625 -15.8275 12.91375 -15.0625 12 C-14.4025 12 -13.7425 12 -13.0625 12 C-13.0625 11.34 -13.0625 10.68 -13.0625 10 C-12.4025 10 -11.7425 10 -11.0625 10 C-11.0625 9.34 -11.0625 8.68 -11.0625 8 C-10.4025 8 -9.7425 8 -9.0625 8 C-8.7221875 7.13375 -8.7221875 7.13375 -8.375 6.25 C-6.45664716 2.96139514 -4.03104862 0 0 0 Z " fill="#F87E31" transform="translate(315.0625,128)"/>
<path d="M0 0 C5.15775188 0.17490728 7.43785656 1.83518957 10.9609375 5.47265625 C11.84394531 6.37177734 12.72695312 7.27089844 13.63671875 8.19726562 C14.54035156 9.14279297 15.44398438 10.08832031 16.375 11.0625 C17.31002638 12.02262668 18.24621375 12.98162417 19.18359375 13.93945312 C21.4673937 16.2821139 23.7387109 18.63563671 26 21 C22.28125 22.1171875 22.28125 22.1171875 19.75 21.0625 C18.88375 20.5365625 18.88375 20.5365625 18 20 C18 19.01 18 18.02 18 17 C17.34 16.67 16.68 16.34 16 16 C16 15.01 16 14.02 16 13 C14.35 13.33 12.7 13.66 11 14 C10.67 15.32 10.34 16.64 10 18 C10.66 18 11.32 18 12 18 C11.75636719 18.57363281 11.51273438 19.14726562 11.26171875 19.73828125 C10.72159367 22.13265086 10.72159367 22.13265086 12.58203125 24.10546875 C13.68611328 25.13607422 13.68611328 25.13607422 14.8125 26.1875 C15.54082031 26.88230469 16.26914063 27.57710937 17.01953125 28.29296875 C18.89252521 30.0484323 18.89252521 30.0484323 21 31 C21 31.66 21 32.32 21 33 C21.66 33 22.32 33 23 33 C24.62109375 34.6796875 24.62109375 34.6796875 26.4375 36.875 C28.58400884 39.46193722 30.16776562 41.11184374 33 43 C32.67 42.34 32.34 41.68 32 41 C32.99 41 33.98 41 35 41 C35 42.65 35 44.3 35 46 C32.525 46.495 32.525 46.495 30 47 C30 48.65 30 50.3 30 52 C28.68 52 27.36 52 26 52 C26.495 51.01 26.495 51.01 27 50 C26.319375 49.34 25.63875 48.68 24.9375 48 C22.68763983 45.76285091 20.62023128 43.4144047 18.5625 41 C16.45478089 38.55996232 14.49448605 36.57873838 12 34.5 C8.8541538 31.8784615 6.38950513 29.04601048 3.74609375 25.9375 C1.37249818 23.30371163 -1.20828325 21.17890088 -4 19 C-4.66 19.33 -5.32 19.66 -6 20 C-6 18.68 -6 17.36 -6 16 C-4.68 16 -3.36 16 -2 16 C-1.34 14.02 -0.68 12.04 0 10 C1.98 10 3.96 10 6 10 C6.93423645 6.98968256 7.04449911 6.13349732 6 3 C3.36 2.67 0.72 2.34 -2 2 C-1.34 1.34 -0.68 0.68 0 0 Z M1 12 C1.92652701 13.17539996 2.86663387 14.34010577 3.8125 15.5 C4.33457031 16.1496875 4.85664063 16.799375 5.39453125 17.46875 C6.99204833 19.34509128 6.99204833 19.34509128 10 19 C8.88121617 17.82737096 7.75476949 16.66204862 6.625 15.5 C5.99851563 14.8503125 5.37203125 14.200625 4.7265625 13.53125 C3.13524093 11.77882569 3.13524093 11.77882569 1 12 Z " fill="#F48B4A" transform="translate(194,127)"/>
<path d="M0 0 C2.5 1.25 2.5 1.25 4.5 4.25 C4.35895686 8.48129428 1.4045793 10.47744703 -1.5 13.25 C-2.263125 14.19875 -3.02625 15.1475 -3.8125 16.125 C-6.4147613 19.32652021 -9.45941545 21.86472658 -12.59375 24.53125 C-14.70952284 26.35720529 -14.70952284 26.35720529 -17 29.25 C-20.90639436 33.93767323 -25.42551383 37.86700922 -30.5 41.25 C-30.5 39.93 -30.5 38.61 -30.5 37.25 C-29.51 37.25 -28.52 37.25 -27.5 37.25 C-27.685625 36.46625 -27.87125 35.6825 -28.0625 34.875 C-28.5 32.25 -28.5 32.25 -27.5 30.25 C-29.88564077 30.82584432 -32.16682784 31.47227595 -34.5 32.25 C-34.17 33.24 -33.84 34.23 -33.5 35.25 C-36.47 35.745 -36.47 35.745 -39.5 36.25 C-35.4021312 31.36850912 -31.15369621 26.75558388 -26.640625 22.2578125 C-26.01017273 21.6264035 -25.37972046 20.99499451 -24.73016357 20.3444519 C-23.41036645 19.02397955 -22.08932687 17.70474793 -20.76708984 16.38671875 C-18.738084 14.36311573 -16.71453038 12.33416904 -14.69140625 10.3046875 C-13.40396674 9.01790801 -12.11621749 7.73143834 -10.828125 6.4453125 C-9.92033295 5.5344841 -9.92033295 5.5344841 -8.99420166 4.60525513 C-3.35172865 -1.0055186 -3.35172865 -1.0055186 0 0 Z " fill="#F88035" transform="translate(327.5,139.75)"/>
<path d="M0 0 C0 0.99 0 1.98 0 3 C-0.66 3 -1.32 3 -2 3 C-2 8.61 -2 14.22 -2 20 C-1.34 20 -0.68 20 0 20 C0.33 19.34 0.66 18.68 1 18 C1 18.66 1 19.32 1 20 C1.639375 20.268125 2.27875 20.53625 2.9375 20.8125 C5 22 5 22 6 25 C6.66 25 7.32 25 8 25 C8.625 26.8125 8.625 26.8125 9 29 C8.34 29.99 7.68 30.98 7 32 C6.34 32 5.68 32 5 32 C5 30.35 5 28.7 5 27 C3.205625 26.3503125 3.205625 26.3503125 1.375 25.6875 C-2.21232201 24.3470416 -5.60611779 22.78178816 -9 21 C-9.33 21.33 -9.66 21.66 -10 22 C-11.99958364 22.04080783 -14.00045254 22.04254356 -16 22 C-17.57273568 24.8424854 -17.57273568 24.8424854 -18 28 C-21.66075376 28.3327958 -23.39500988 28.46170299 -26.375 26.1875 C-28 24 -28 24 -28 21 C-29.32 21.33 -30.64 21.66 -32 22 C-32.1546875 21.0409375 -32.1546875 21.0409375 -32.3125 20.0625 C-32.539375 19.381875 -32.76625 18.70125 -33 18 C-33.99 17.67 -34.98 17.34 -36 17 C-35.6875 15.0625 -35.6875 15.0625 -35 13 C-34.01 12.67 -33.02 12.34 -32 12 C-31.34 12.33 -30.68 12.66 -30 13 C-30.33 14.98 -30.66 16.96 -31 19 C-27.535 18.505 -27.535 18.505 -24 18 C-24 18.66 -24 19.32 -24 20 C-22.68 20 -21.36 20 -20 20 C-20.2784375 18.7934375 -20.2784375 18.7934375 -20.5625 17.5625 C-20.706875 16.716875 -20.85125 15.87125 -21 15 C-20 14 -20 14 -17.4375 13.9375 C-16.633125 13.958125 -15.82875 13.97875 -15 14 C-15.19471111 12.05000871 -15.19471111 12.05000871 -16 10 C-16.99 9.566875 -16.99 9.566875 -18 9.125 C-18.66 8.75375 -19.32 8.3825 -20 8 C-20.75 4.875 -20.75 4.875 -21 2 C-19.68 2.33 -18.36 2.66 -17 3 C-17 3.66 -17 4.32 -17 5 C-14.525 5.495 -14.525 5.495 -12 6 C-12 6.66 -12 7.32 -12 8 C-10.68 8 -9.36 8 -8 8 C-8.33 6.35 -8.66 4.7 -9 3 C-2.25 0 -2.25 0 0 0 Z " fill="#FB741F" transform="translate(232,171)"/>
<path d="M0 0 C1.98 0 3.96 0 6 0 C6 0.99 6 1.98 6 3 C6.99 3.33 7.98 3.66 9 4 C9 4.99 9 5.98 9 7 C9.58007812 7.15855469 10.16015625 7.31710938 10.7578125 7.48046875 C19.14863832 9.9866395 23.79106486 14.45209607 29.31640625 21.0234375 C30.93902185 22.97921405 30.93902185 22.97921405 32.58984375 24.6015625 C34 26.0625 34 26.0625 36 29 C35.8125 32.875 35.8125 32.875 35 36 C34.34 36 33.68 36 33 36 C32.731875 36.639375 32.46375 37.27875 32.1875 37.9375 C31 40 31 40 28 41 C28 41.66 28 42.32 28 43 C27.01 43 26.02 43 25 43 C25.33 40.03 25.66 37.06 26 34 C26.66 34 27.32 34 28 34 C28 33.01 28 32.02 28 31 C27.01 31.33 26.02 31.66 25 32 C25 30.68 25 29.36 25 28 C24.26628174 27.91532471 23.53256348 27.83064941 22.77661133 27.7434082 C19.41245269 26.84269045 18.03261299 25.54862557 15.57421875 23.10546875 C14.77822266 22.31462891 13.98222656 21.52378906 13.16210938 20.70898438 C12.34548828 19.87689453 11.52886719 19.04480469 10.6875 18.1875 C9.85154297 17.36701172 9.01558594 16.54652344 8.15429688 15.70117188 C6.9699707 14.50911133 6.9699707 14.50911133 5.76171875 13.29296875 C5.03944092 12.5661792 4.31716309 11.83938965 3.57299805 11.09057617 C2 9 2 9 2 5 C1.34 5 0.68 5 0 5 C0 3.35 0 1.7 0 0 Z " fill="#F87C2E" transform="translate(204,140)"/>
<path d="M0 0 C6.92810724 5.66574049 13.14204142 12.03033639 19.4375 18.375 C20.56161467 19.50413955 21.68596174 20.63304778 22.81054688 21.76171875 C25.54305235 24.50515188 28.27239009 27.25169985 31 30 C30.505 28.515 30.505 28.515 30 27 C31.32 27.66 32.64 28.32 34 29 C33.505 30.485 33.505 30.485 33 32 C30.525 32.495 30.525 32.495 28 33 C28 34.65 28 36.3 28 38 C26.68 38 25.36 38 24 38 C24.33 37.01 24.66 36.02 25 35 C20.7920266 30.71800271 16.5743942 26.44585127 12.34741211 22.18261719 C10.91012566 20.73022193 9.47554027 19.27514862 8.04370117 17.81738281 C5.98796492 15.7253563 3.92278327 13.64307773 1.85546875 11.5625 C1.21473923 10.90628662 0.5740097 10.25007324 -0.08613586 9.57397461 C-0.68653183 8.97335205 -1.2869278 8.37272949 -1.90551758 7.75390625 C-2.69494499 6.95448608 -2.69494499 6.95448608 -3.50032043 6.13891602 C-5.08433402 4.69759984 -5.08433402 4.69759984 -8 5 C-7.67 4.01 -7.34 3.02 -7 2 C-6.01 2 -5.02 2 -4 2 C-3.67 2.66 -3.34 3.32 -3 4 C-1.68 4 -0.36 4 1 4 C0.67 2.68 0.34 1.36 0 0 Z " fill="#F48944" transform="translate(184,153)"/>
<path d="M0 0 C0.680625 0.70125 1.36125 1.4025 2.0625 2.125 C4.07684387 4.15069229 6.17081302 5.99640915 8.375 7.8125 C12.74102477 11.49872705 17.42064662 15.84129323 20 21 C17.69 21.33 15.38 21.66 13 22 C13.33 20.02 13.66 18.04 14 16 C12.35 16.33 10.7 16.66 9 17 C9 17.99 9 18.98 9 20 C9.99 20 10.98 20 12 20 C12 21.65 12 23.3 12 25 C13.32 24.67 14.64 24.34 16 24 C16.165 24.78375 16.33 25.5675 16.5 26.375 C17.70396899 29.1093471 17.70396899 29.1093471 19.9140625 29.77734375 C21.92516699 30.26413052 23.962638 30.63853255 26 31 C25.79503906 30.38640625 25.59007812 29.7728125 25.37890625 29.140625 C25.25386719 28.43421875 25.12882812 27.7278125 25 27 C26.9375 24.75 26.9375 24.75 29 23 C29 23.66 29 24.32 29 25 C30.32 25.33 31.64 25.66 33 26 C32.34 26 31.68 26 31 26 C30.34 27.32 29.68 28.64 29 30 C28.34 30 27.68 30 27 30 C27 30.66 27 31.32 27 32 C23.57654484 34.07852635 23.57654484 34.07852635 21.08203125 33.73876953 C13.47796076 31.0406085 6.96717958 22.12254451 1.42431641 16.5546875 C-0.02195675 15.10296045 -1.47362318 13.6567755 -2.92578125 12.2109375 C-3.83714844 11.29828125 -4.74851563 10.385625 -5.6875 9.4453125 C-6.93080078 8.20031982 -6.93080078 8.20031982 -8.19921875 6.93017578 C-10 5 -10 5 -10 4 C-8.35 4 -6.7 4 -5 4 C-4.67 5.65 -4.34 7.3 -4 9 C-2.68 9 -1.36 9 0 9 C0 9.99 0 10.98 0 12 C0.66 12 1.32 12 2 12 C2 9.36 2 6.72 2 4 C1.34 4 0.68 4 0 4 C0 2.68 0 1.36 0 0 Z " fill="#F58540" transform="translate(188,168)"/>
<path d="M0 0 C6.74080425 5.52650334 12.8071129 11.69449559 18.9375 17.875 C20.01343727 18.95596274 21.08960731 20.03669383 22.16601562 21.1171875 C24.78003292 23.74212641 27.39088596 26.37018628 30 29 C29.01 29.33 28.02 29.66 27 30 C26.566875 29.525625 26.13375 29.05125 25.6875 28.5625 C23.97690387 26.76313043 23.97690387 26.76313043 21 26 C21.33 27.65 21.66 29.3 22 31 C15.84742994 25.92476095 10.28327436 20.36466744 4.6875 14.6875 C2.90204551 12.87662979 1.11439841 11.06791792 -0.67578125 9.26171875 C-1.45864502 8.46725342 -2.24150879 7.67278809 -3.0480957 6.85424805 C-4.86885984 4.94399053 -4.86885984 4.94399053 -7 4 C-7 3.34 -7 2.68 -7 2 C-6.01 2 -5.02 2 -4 2 C-3.67 2.66 -3.34 3.32 -3 4 C-2.01 3.67 -1.02 3.34 0 3 C0 2.01 0 1.02 0 0 Z " fill="#F5833C" transform="translate(190,147)"/>
<path d="M0 0 C2.4697574 1.2747135 4.08435968 2.94830893 5.9375 5 C4.58276125 9.06109472 2.85253038 11.44232942 -0.1953125 14.42578125 C-1.00097656 15.22177734 -1.80664062 16.01777344 -2.63671875 16.83789062 C-3.47847656 17.65451172 -4.32023437 18.47113281 -5.1875 19.3125 C-6.03699219 20.14845703 -6.88648438 20.98441406 -7.76171875 21.84570312 C-9.85537141 23.9040695 -11.95570824 25.95509803 -14.0625 28 C-14.3925 26.68 -14.7225 25.36 -15.0625 24 C-15.7225 24 -16.3825 24 -17.0625 24 C-16.5675 22.515 -16.5675 22.515 -16.0625 21 C-16.0625 21.66 -16.0625 22.32 -16.0625 23 C-14.7425 23 -13.4225 23 -12.0625 23 C-12.0625 22.01 -12.0625 21.02 -12.0625 20 C-11.4025 20 -10.7425 20 -10.0625 20 C-10.0625 19.01 -10.0625 18.02 -10.0625 17 C-9.0725 17 -8.0825 17 -7.0625 17 C-7.0625 16.01 -7.0625 15.02 -7.0625 14 C-10.34946233 13.20046862 -11.77273192 12.90341064 -15.0625 14 C-15.0625 13.34 -15.0625 12.68 -15.0625 12 C-14.4025 12 -13.7425 12 -13.0625 12 C-13.0625 11.34 -13.0625 10.68 -13.0625 10 C-12.4025 10 -11.7425 10 -11.0625 10 C-11.0625 9.34 -11.0625 8.68 -11.0625 8 C-10.4025 8 -9.7425 8 -9.0625 8 C-8.7221875 7.13375 -8.7221875 7.13375 -8.375 6.25 C-6.45664716 2.96139514 -4.03104862 0 0 0 Z " fill="#F49454" transform="translate(315.0625,128)"/>
<path d="M0 0 C5.15775188 0.17490728 7.43785656 1.83518957 10.9609375 5.47265625 C11.84394531 6.37177734 12.72695312 7.27089844 13.63671875 8.19726562 C14.54035156 9.14279297 15.44398438 10.08832031 16.375 11.0625 C17.31002638 12.02262668 18.24621375 12.98162417 19.18359375 13.93945312 C21.4673937 16.2821139 23.7387109 18.63563671 26 21 C22.28125 22.1171875 22.28125 22.1171875 19.75 21.0625 C18.88375 20.5365625 18.88375 20.5365625 18 20 C18 19.01 18 18.02 18 17 C17.34 16.67 16.68 16.34 16 16 C16 15.01 16 14.02 16 13 C14.35 13.33 12.7 13.66 11 14 C10.67 15.32 10.34 16.64 10 18 C10.66 18 11.32 18 12 18 C11.67 18.99 11.34 19.98 11 21 C8.36 18.36 5.72 15.72 3 13 C3.66 14.32 4.32 15.64 5 17 C3.35 17 1.7 17 0 17 C0.66 18.98 1.32 20.96 2 23 C-0.46800047 21.84826645 -2.04783565 20.95216435 -4 19 C-4.66 19.33 -5.32 19.66 -6 20 C-6 18.68 -6 17.36 -6 16 C-4.68 16 -3.36 16 -2 16 C-1.34 14.02 -0.68 12.04 0 10 C1.98 10 3.96 10 6 10 C6.93423645 6.98968256 7.04449911 6.13349732 6 3 C3.36 2.67 0.72 2.34 -2 2 C-1.34 1.34 -0.68 0.68 0 0 Z " fill="#F6853F" transform="translate(194,127)"/>
<path d="M0 0 C2.69526279 1.12090324 3.65609851 2.54461619 5.31640625 4.921875 C5.8371875 5.65535156 6.35796875 6.38882813 6.89453125 7.14453125 C7.28125 7.71042969 7.66796875 8.27632812 8.06640625 8.859375 C6.41640625 10.179375 4.76640625 11.499375 3.06640625 12.859375 C3.54722656 13.39046875 4.02804687 13.9215625 4.5234375 14.46875 C6.45021072 17.45402902 6.56224865 19.58287516 6.75390625 23.109375 C6.85251953 24.72585937 6.85251953 24.72585937 6.953125 26.375 C6.99050781 27.19484375 7.02789062 28.0146875 7.06640625 28.859375 C6.40640625 28.529375 5.74640625 28.199375 5.06640625 27.859375 C5.08703125 26.580625 5.10765625 25.301875 5.12890625 23.984375 C4.76111806 18.87620576 2.05357713 16.35406786 -1.55859375 13.046875 C-2.08702881 12.59135254 -2.61546387 12.13583008 -3.15991211 11.66650391 C-4.66015625 10.33984375 -4.66015625 10.33984375 -6.93359375 7.859375 C-6.86389351 4.8676262 -5.98314514 3.92259574 -4.12109375 1.546875 C-1.93359375 -0.140625 -1.93359375 -0.140625 0 0 Z " fill="#F39458" transform="translate(260.93359375,215.140625)"/>
<path d="M0 0 C0.5775 0.226875 1.155 0.45375 1.75 0.6875 C1.42 2.9975 1.09 5.3075 0.75 7.6875 C-0.24 7.6875 -1.23 7.6875 -2.25 7.6875 C-2.58 9.3375 -2.91 10.9875 -3.25 12.6875 C-4.9 13.0175 -6.55 13.3475 -8.25 13.6875 C-8.58 14.6775 -8.91 15.6675 -9.25 16.6875 C-14.66538462 17.91826923 -14.66538462 17.91826923 -17.625 16.75 C-18.429375 16.2240625 -18.429375 16.2240625 -19.25 15.6875 C-18.92 14.3675 -18.59 13.0475 -18.25 11.6875 C-16.6 11.6875 -14.95 11.6875 -13.25 11.6875 C-13.25 11.0275 -13.25 10.3675 -13.25 9.6875 C-12.26 9.6875 -11.27 9.6875 -10.25 9.6875 C-10.58 8.6975 -10.91 7.7075 -11.25 6.6875 C-9.6 6.0275 -7.95 5.3675 -6.25 4.6875 C-6.25 4.0275 -6.25 3.3675 -6.25 2.6875 C-3.02697842 -0.42041367 -3.02697842 -0.42041367 0 0 Z " fill="#FB7521" transform="translate(299.25,169.3125)"/>
<path d="M0 0 C0.66 0.33 1.32 0.66 2 1 C2 2.32 2 3.64 2 5 C2.639375 5.103125 3.27875 5.20625 3.9375 5.3125 C4.618125 5.539375 5.29875 5.76625 6 6 C6.33 6.99 6.66 7.98 7 9 C5.35 9 3.7 9 2 9 C1.67 8.01 1.34 7.02 1 6 C-2.11785113 6.64644661 -2.11785113 6.64644661 -3 9 C-2.34 9 -1.68 9 -1 9 C-1.1875 10.875 -1.1875 10.875 -2 13 C-4.5625 14.25 -4.5625 14.25 -7 15 C-7 14.01 -7 13.02 -7 12 C-7.99 12 -8.98 12 -10 12 C-10.33 9.36 -10.66 6.72 -11 4 C-10.01 3.67 -9.02 3.34 -8 3 C-7.67 2.01 -7.34 1.02 -7 0 C-3.83299069 -1.05566977 -3.03571759 -0.97926374 0 0 Z " fill="#FB7520" transform="translate(179,149)"/>
<path d="M0 0 C3 1 3 1 4.1875 3.0625 C4.455625 3.701875 4.72375 4.34125 5 5 C4.34 5.66 3.68 6.32 3 7 C3.32248257 8.33599921 3.65772583 9.66893378 4 11 C3.5625 13.75 3.5625 13.75 3 16 C2.34 16 1.68 16 1 16 C1 15.34 1 14.68 1 14 C-3.32371893 16.02633069 -3.32371893 16.02633069 -7 19 C-6.6814823 21.10820797 -6.6814823 21.10820797 -6 23 C-8.60097682 24.30048841 -11.13955062 24.56471422 -14 25 C-14 21.23409339 -12.86427283 19.89063251 -10.75 16.8125 C-10.14671875 15.91144531 -9.5434375 15.01039063 -8.921875 14.08203125 C-8.28765625 13.39496094 -7.6534375 12.70789063 -7 12 C-5.68 12 -4.36 12 -3 12 C-1.29237814 7.90170754 0 4.46034635 0 0 Z " fill="#FA7421" transform="translate(242,206)"/>
<path d="M0 0 C0.33 1.32 0.66 2.64 1 4 C-1 5.33333333 -3 6.66666667 -5 8 C-5.33 8.99 -5.66 9.98 -6 11 C-3.03 11.495 -3.03 11.495 0 12 C-0.33 11.01 -0.66 10.02 -1 9 C-0.01 9 0.98 9 2 9 C2.33 7.68 2.66 6.36 3 5 C3.99 5.66 4.98 6.32 6 7 C6 6.34 6 5.68 6 5 C7.32 5.33 8.64 5.66 10 6 C9.195625 6.61875 8.39125 7.2375 7.5625 7.875 C4.96125481 9.74164041 4.96125481 9.74164041 4 12 C3.34 12 2.68 12 2 12 C1.67 12.99 1.34 13.98 1 15 C0.34 15 -0.32 15 -1 15 C-1.33 15.99 -1.66 16.98 -2 18 C-6.75 17.125 -6.75 17.125 -9 16 C-9.8125 14.25 -9.8125 14.25 -10 12 C-7.87484769 7.08558527 -3.81924443 3.63089813 0 0 Z " fill="#F97726" transform="translate(262,190)"/>
<path d="M0 0 C1.32 0.33 2.64 0.66 4 1 C4 1.66 4 2.32 4 3 C5.65 3.33 7.3 3.66 9 4 C9 4.66 9 5.32 9 6 C9.66 6.33 10.32 6.66 11 7 C9.515 9.475 9.515 9.475 8 12 C8.7425 12.680625 8.7425 12.680625 9.5 13.375 C11 15 11 15 11 17 C11.66 17 12.32 17 13 17 C12 19 12 19 11 20 C8.66702567 20.04092937 6.33294775 20.04241723 4 20 C3.67 18.02 3.34 16.04 3 14 C2.01 13.67 1.02 13.34 0 13 C1 12 1 12 3.5625 11.9375 C4.366875 11.958125 5.17125 11.97875 6 12 C5.80528889 10.05000871 5.80528889 10.05000871 5 8 C4.34 7.71125 3.68 7.4225 3 7.125 C2.34 6.75375 1.68 6.3825 1 6 C0.25 2.875 0.25 2.875 0 0 Z " fill="#F8792A" transform="translate(211,173)"/>
<path d="M0 0 C0.99 1.32 1.98 2.64 3 4 C2.01 4.495 2.01 4.495 1 5 C1.33 6.32 1.66 7.64 2 9 C0.68 9 -0.64 9 -2 9 C-2 9.66 -2 10.32 -2 11 C-2.99 10.67 -3.98 10.34 -5 10 C-5.33 10.99 -5.66 11.98 -6 13 C-6.99 13.495 -6.99 13.495 -8 14 C-8 14.66 -8 15.32 -8 16 C-10.31 16 -12.62 16 -15 16 C-13.63197721 11.5228345 -11.65244456 9.80957274 -8 7 C-7.67 6.01 -7.34 5.02 -7 4 C-4.78298853 2.41034429 -2.42137527 1.27672514 0 0 Z " fill="#F97521" transform="translate(270,186)"/>
<path d="M0 0 C0.66 0 1.32 0 2 0 C3.62109375 1.6796875 3.62109375 1.6796875 5.4375 3.875 C7.58400884 6.46193722 9.16776562 8.11184374 12 10 C11.67 9.34 11.34 8.68 11 8 C11.99 8 12.98 8 14 8 C14 9.65 14 11.3 14 13 C12.35 13.33 10.7 13.66 9 14 C9 15.65 9 17.3 9 19 C7.68 19 6.36 19 5 19 C5.33 18.34 5.66 17.68 6 17 C4.8553125 15.9171875 4.8553125 15.9171875 3.6875 14.8125 C1.28866409 12.30209033 -0.35410221 10.03191698 -2 7 C-0.02 7.66 1.96 8.32 4 9 C4 8.01 4 7.02 4 6 C2.68 5.34 1.36 4.68 0 4 C0 2.68 0 1.36 0 0 Z " fill="#F49254" transform="translate(215,160)"/>
<path d="M0 0 C4.52615993 3.67832017 8.39424999 7.41086363 12 12 C7.25 11.125 7.25 11.125 5 10 C5.33 11.65 5.66 13.3 6 15 C-0.52492669 9.50146628 -0.52492669 9.50146628 -3.25 6.625 C-4.96837647 4.65977445 -4.96837647 4.65977445 -8 5 C-7.67 4.01 -7.34 3.02 -7 2 C-6.01 2 -5.02 2 -4 2 C-3.67 2.66 -3.34 3.32 -3 4 C-1.68 4 -0.36 4 1 4 C0.67 2.68 0.34 1.36 0 0 Z " fill="#F38D4C" transform="translate(184,153)"/>
<path d="M0 0 C0.33 0.66 0.66 1.32 1 2 C0.360625 2.928125 -0.27875 3.85625 -0.9375 4.8125 C-3.08622093 7.84219943 -3.08622093 7.84219943 -4 11 C-4.66 11 -5.32 11 -6 11 C-6.0825 11.61875 -6.165 12.2375 -6.25 12.875 C-7 15 -7 15 -8.9375 16.3125 C-9.618125 16.539375 -10.29875 16.76625 -11 17 C-11.66 16.67 -12.32 16.34 -13 16 C-13.66 17.32 -14.32 18.64 -15 20 C-15.99 19.34 -16.98 18.68 -18 18 C-12 12 -6 6 0 0 Z " fill="#F67728" transform="translate(210,234)"/>
<path d="M0 0 C0.33 0.66 0.66 1.32 1 2 C-5.66843475 7.71580122 -10.45272078 8.29873986 -19 8 C-19.268125 8.61875 -19.53625 9.2375 -19.8125 9.875 C-21 12 -21 12 -24 14 C-25.125 8.375 -25.125 8.375 -24 5 C-23.34 5 -22.68 5 -22 5 C-22 5.99 -22 6.98 -22 8 C-21.34 7.67 -20.68 7.34 -20 7 C-19.67 6.01 -19.34 5.02 -19 4 C-18.01 3.67 -17.02 3.34 -16 3 C-15.1028125 3.4640625 -15.1028125 3.4640625 -14.1875 3.9375 C-11.3653005 5.30828261 -9.0966471 5.14075669 -6 5 C-5.67 3.68 -5.34 2.36 -5 1 C-3.35 0.67 -1.7 0.34 0 0 Z " fill="#F4884A" transform="translate(296,181)"/>
<path d="M0 0 C2.2109885 0.42793326 3.98119242 0.99059621 6 2 C5.75 3.875 5.75 3.875 5 6 C3.66666667 6.66666667 2.33333333 7.33333333 1 8 C0.19471111 10.05000871 0.19471111 10.05000871 0 12 C-1.9375 11.1875 -1.9375 11.1875 -4 10 C-4.33 9.01 -4.66 8.02 -5 7 C-2 2 -2 2 0 0 Z " fill="#F97522" transform="translate(313,128)"/>
<path d="M0 0 C5.29012124 4.40843437 10.18808428 9.07559794 15 14 C14.01 14.33 13.02 14.66 12 15 C11.566875 14.525625 11.13375 14.05125 10.6875 13.5625 C8.97690387 11.76313043 8.97690387 11.76313043 6 11 C6.33 12.65 6.66 14.3 7 16 C5.02 14.35 3.04 12.7 1 11 C1.99 10.34 2.98 9.68 4 9 C4 7.68 4 6.36 4 5 C3.01 5 2.02 5 1 5 C0.67 3.35 0.34 1.7 0 0 Z " fill="#F2975E" transform="translate(205,162)"/>
<path d="M0 0 C0 4.13092659 -1.62048315 6.06268495 -4.08984375 9.2734375 C-6.87655638 11.79230659 -9.16750405 11.72519889 -12.80859375 11.79296875 C-16.33041928 12.12569023 -18.27621608 13.83494099 -21 16 C-21.66 15.67 -22.32 15.34 -23 15 C-18.17787419 9.18872017 -18.17787419 9.18872017 -14.87890625 8.66015625 C-14.13511719 8.64855469 -13.39132813 8.63695312 -12.625 8.625 C-8.25074318 8.46904178 -6.486879 7.03005604 -3.4375 3.9375 C-2.27083603 2.64348089 -1.11748492 1.33671902 0 0 Z " fill="#EF9458" transform="translate(234,218)"/>
<path d="M0 0 C2.75 -0.25 2.75 -0.25 6 0 C8.375 2 8.375 2 10 4 C9.01 4.495 9.01 4.495 8 5 C8.33 6.32 8.66 7.64 9 9 C4.125 7.25 4.125 7.25 3 5 C2.01 5.66 1.02 6.32 0 7 C-0.99 6.67 -1.98 6.34 -3 6 C-3 5.34 -3 4.68 -3 4 C-2.34 4 -1.68 4 -1 4 C-0.67 2.68 -0.34 1.36 0 0 Z " fill="#FB741F" transform="translate(192,129)"/>
<path d="M0 0 C0.33 0.99 0.66 1.98 1 3 C0.01 4.485 0.01 4.485 -1 6 C-1.66 6 -2.32 6 -3 6 C-3.33 6.99 -3.66 7.98 -4 9 C-4.66 9 -5.32 9 -6 9 C-6 9.66 -6 10.32 -6 11 C-8 12.625 -8 12.625 -10 14 C-10.66 12.68 -11.32 11.36 -12 10 C-11.360625 9.896875 -10.72125 9.79375 -10.0625 9.6875 C-9.0415625 9.3471875 -9.0415625 9.3471875 -8 9 C-7.67 8.01 -7.34 7.02 -7 6 C-7.66 5.67 -8.32 5.34 -9 5 C-4.16129032 0 -4.16129032 0 0 0 Z " fill="#F58333" transform="translate(243,220)"/>
<path d="M0 0 C0.99 0.66 1.98 1.32 3 2 C3 3.32 3 4.64 3 6 C3.66 6 4.32 6 5 6 C6.125 11.75 6.125 11.75 5 14 C4.34 14 3.68 14 3 14 C2.34 13.34 1.68 12.68 1 12 C0.443125 11.54625 -0.11375 11.0925 -0.6875 10.625 C-1.120625 10.08875 -1.55375 9.5525 -2 9 C-1.625 7 -1.625 7 -1 5 C-1.33 4.01 -1.66 3.02 -2 2 C-1.34 2 -0.68 2 0 2 C0 1.34 0 0.68 0 0 Z " fill="#F87B2C" transform="translate(185,166)"/>
<path d="M0 0 C1.98 0 3.96 0 6 0 C6 0.99 6 1.98 6 3 C6.99 3.33 7.98 3.66 9 4 C9 4.99 9 5.98 9 7 C9.99 7.66 10.98 8.32 12 9 C11.01 9 10.02 9 9 9 C8.67 9.99 8.34 10.98 8 12 C7.67 11.01 7.34 10.02 7 9 C5.35 8.67 3.7 8.34 2 8 C2 7.01 2 6.02 2 5 C1.34 5 0.68 5 0 5 C0 3.35 0 1.7 0 0 Z " fill="#FB741F" transform="translate(204,140)"/>
<path d="M0 0 C-0.54723683 3.37462715 -1.0549 5.08235 -3 8 C-3.66 8 -4.32 8 -5 8 C-5.268125 8.61875 -5.53625 9.2375 -5.8125 9.875 C-7 12 -7 12 -10 14 C-9.67 12.35 -9.34 10.7 -9 9 C-8.01 9 -7.02 9 -6 9 C-6 6.03 -6 3.06 -6 0 C-3 -1 -3 -1 0 0 Z " fill="#F5965A" transform="translate(314,259)"/>
<path d="M0 0 C1.32 0.66 2.64 1.32 4 2 C4 1.34 4 0.68 4 0 C5.32 0.33 6.64 0.66 8 1 C7.195625 1.61875 6.39125 2.2375 5.5625 2.875 C2.96125481 4.74164041 2.96125481 4.74164041 2 7 C1.34 7 0.68 7 0 7 C-0.33 7.99 -0.66 8.98 -1 10 C-1.66 10 -2.32 10 -3 10 C-3.33 10.99 -3.66 11.98 -4 13 C-4.66 13 -5.32 13 -6 13 C-6 11.35 -6 9.7 -6 8 C-4.68 8 -3.36 8 -2 8 C-2.33 6.68 -2.66 5.36 -3 4 C-2.01 4 -1.02 4 0 4 C0 2.68 0 1.36 0 0 Z " fill="#F29A63" transform="translate(264,195)"/>
<path d="M0 0 C0.33 0.66 0.66 1.32 1 2 C3.02463255 2.65213292 3.02463255 2.65213292 5 3 C4.34 3 3.68 3 3 3 C2.34 4.32 1.68 5.64 1 7 C0.34 7 -0.32 7 -1 7 C-1 7.66 -1 8.32 -1 9 C-3.13359119 10.29539465 -4.47607754 11.03274515 -7 10.875 C-9.59521914 9.73959163 -11.11664483 8.08514322 -13 6 C-9.37 6.66 -5.74 7.32 -2 8 C-2.33 6.68 -2.66 5.36 -3 4 C-1.5625 1.75 -1.5625 1.75 0 0 Z " fill="#ED995E" transform="translate(216,191)"/>
<path d="M0 0 C1.32 0 2.64 0 4 0 C4 0.66 4 1.32 4 2 C3.34 2 2.68 2 2 2 C1.731875 2.61875 1.46375 3.2375 1.1875 3.875 C0 6 0 6 -3 8 C-5.83040908 8 -7.39571853 7.59440221 -9.43359375 5.58984375 C-10.67500245 4.10226335 -11.84278378 2.55397607 -13 1 C-10.69 1.33 -8.38 1.66 -6 2 C-6.33 3.32 -6.66 4.64 -7 6 C-5.35 6 -3.7 6 -2 6 C-2 4.68 -2 3.36 -2 2 C-1.34 2 -0.68 2 0 2 C0 1.34 0 0.68 0 0 Z " fill="#ED894A" transform="translate(203,267)"/>
<path d="M0 0 C1.98 1.65 3.96 3.3 6 5 C5.01 5.495 5.01 5.495 4 6 C3.01 5.67 2.02 5.34 1 5 C1 5.99 1 6.98 1 8 C1.66 8 2.32 8 3 8 C2.67 9.32 2.34 10.64 2 12 C1.51789063 11.50628906 1.03578125 11.01257813 0.5390625 10.50390625 C-0.09257812 9.86324219 -0.72421875 9.22257813 -1.375 8.5625 C-2.00148437 7.92441406 -2.62796875 7.28632813 -3.2734375 6.62890625 C-4.91723061 4.92117824 -4.91723061 4.92117824 -7 4 C-7 3.34 -7 2.68 -7 2 C-6.01 2 -5.02 2 -4 2 C-3.67 2.66 -3.34 3.32 -3 4 C-2.01 3.67 -1.02 3.34 0 3 C0 2.01 0 1.02 0 0 Z " fill="#F1975A" transform="translate(190,147)"/>
<path d="M0 0 C2.27545227 1.13772614 3.20223858 2.29559301 4.8125 4.25 C6.75729004 6.5818367 8.66895373 8.63986879 10.875 10.75 C13 13 13 13 13 16 C12.34 15.67 11.68 15.34 11 15 C11 14.34 11 13.68 11 13 C10.34 13 9.68 13 9 13 C8.195625 12.175 7.39125 11.35 6.5625 10.5 C4.23877584 7.65083807 4.23877584 7.65083807 1 8 C0.67 5.36 0.34 2.72 0 0 Z " fill="#F19357" transform="translate(229,183)"/>
<path d="M0 0 C0.66 0 1.32 0 2 0 C2 0.66 2 1.32 2 2 C2.66 2.33 3.32 2.66 4 3 C2.73113036 4.12721436 1.45982438 5.25168658 0.1875 6.375 C-0.52019531 7.00148437 -1.22789062 7.62796875 -1.95703125 8.2734375 C-4 10 -4 10 -7 12 C-7 10.68 -7 9.36 -7 8 C-6.01 8 -5.02 8 -4 8 C-4.33 6.35 -4.66 4.7 -5 3 C-4.01 2.34 -3.02 1.68 -2 1 C-2 1.66 -2 2.32 -2 3 C-1.34 3 -0.68 3 0 3 C0 2.01 0 1.02 0 0 Z " fill="#F5843B" transform="translate(304,169)"/>
<path d="M0 0 C1.485 0.99 1.485 0.99 3 2 C5.11544864 2.27026371 5.11544864 2.27026371 7.375 2.3125 C11.075058 2.6433995 11.89232329 2.91294223 14.9375 5.375 C17 8 17 8 19 11 C18.01 11.495 18.01 11.495 17 12 C16.38125 11.030625 15.7625 10.06125 15.125 9.0625 C13.28385081 6.79441766 12.31838732 6.07728791 9.44140625 5.37890625 C6.95130073 5.14932205 4.50015637 5.00970935 2 5 C1.34 3.35 0.68 1.7 0 0 Z " fill="#EF975C" transform="translate(269,224)"/>
<path d="M0 0 C0.99 0.33 1.98 0.66 3 1 C3.6875 3.0625 3.6875 3.0625 4 5 C5.65 5.33 7.3 5.66 9 6 C9 6.99 9 7.98 9 9 C8.34 9 7.68 9 7 9 C6.67 9.66 6.34 10.32 6 11 C3.69 9.35 1.38 7.7 -1 6 C-0.67 4.02 -0.34 2.04 0 0 Z " fill="#F67E2F" transform="translate(194,166)"/>
<path d="M0 0 C0.33 0.66 0.66 1.32 1 2 C-0.46615298 5.77010767 -2.13404221 9.41161963 -4 13 C-5.5625 11.75 -5.5625 11.75 -7 10 C-6.61401765 6.63643952 -5.36732738 5.02473201 -2.9375 2.75 C-2.38964844 2.22921875 -1.84179688 1.7084375 -1.27734375 1.171875 C-0.64505859 0.59179688 -0.64505859 0.59179688 0 0 Z " fill="#F09353" transform="translate(191,253)"/>
<path d="M0 0 C0.99 0 1.98 0 3 0 C3.66 1.65 4.32 3.3 5 5 C3.68 6.32 2.36 7.64 1 9 C-0.32 7.35 -1.64 5.7 -3 4 C-2.67 3.34 -2.34 2.68 -2 2 C-1.34 2 -0.68 2 0 2 C0 1.34 0 0.68 0 0 Z " fill="#FC741F" transform="translate(266,224)"/>
<path d="M0 0 C0.99 0 1.98 0 3 0 C2.91433603 2.912575 2.42089045 4.56798024 0.375 6.66796875 C-1.38391375 8.16091772 -3.16313019 9.60436262 -5 11 C-5 9.68 -5 8.36 -5 7 C-5.66 7 -6.32 7 -7 7 C-6.67 6.01 -6.34 5.02 -6 4 C-6 4.66 -6 5.32 -6 6 C-4.68 6 -3.36 6 -2 6 C-2 5.01 -2 4.02 -2 3 C-1.34 3 -0.68 3 0 3 C0 2.01 0 1.02 0 0 Z " fill="#F3975A" transform="translate(305,145)"/>
<path d="M0 0 C-0.8125 1.9375 -0.8125 1.9375 -2 4 C-2.99 4.33 -3.98 4.66 -5 5 C-5 5.66 -5 6.32 -5 7 C-5.99 7 -6.98 7 -8 7 C-8 5.02 -8 3.04 -8 1 C-4.93251126 -0.86240388 -3.40254489 -1.2151946 0 0 Z " fill="#F5863F" transform="translate(237,176)"/>
<path d="M0 0 C4.13621084 3.3810038 7.81316569 6.66590534 11 11 C8.36 10.67 5.72 10.34 3 10 C3 8.68 3 7.36 3 6 C2.34 5.67 1.68 5.34 1 5 C0.375 2.4375 0.375 2.4375 0 0 Z " fill="#F28E4F" transform="translate(209,138)"/>
<path d="M0 0 C1.98 0.66 3.96 1.32 6 2 C6 2.33 6 2.66 6 3 C4.35 3 2.7 3 1 3 C1.66 4.98 2.32 6.96 3 9 C0.53199953 7.84826645 -1.04783565 6.95216435 -3 5 C-3.99 5.495 -3.99 5.495 -5 6 C-5 4.68 -5 3.36 -5 2 C-3.68 2 -2.36 2 -1 2 C-0.67 1.34 -0.34 0.68 0 0 Z " fill="#F48A45" transform="translate(193,141)"/>
<path d="M0 0 C0.99 0.33 1.98 0.66 3 1 C2.67 2.32 2.34 3.64 2 5 C3.65 4.67 5.3 4.34 7 4 C7.33 4.99 7.66 5.98 8 7 C7.01 7 6.02 7 5 7 C5 7.66 5 8.32 5 9 C2.69 8.34 0.38 7.68 -2 7 C-1.34 4.69 -0.68 2.38 0 0 Z " fill="#F38F4B" transform="translate(281,172)"/>
<path d="M0 0 C0.66 0 1.32 0 2 0 C2 0.66 2 1.32 2 2 C1.505 2.4125 1.01 2.825 0.5 3.25 C-1.65847858 5.76822501 -1.21374961 7.79375585 -1 11 C-3.31 10.67 -5.62 10.34 -8 10 C-7.67 9.01 -7.34 8.02 -7 7 C-6.34 7 -5.68 7 -5 7 C-5 6.34 -5 5.68 -5 5 C-4.34 5 -3.68 5 -3 5 C-2.690625 4.360625 -2.38125 3.72125 -2.0625 3.0625 C-1 1 -1 1 0 0 Z " fill="#F59A5D" transform="translate(283,157)"/>
<path d="M0 0 C2.7839183 1.39195915 2.97898997 3.15575779 4 6 C3.01 6 2.02 6 1 6 C1 6.66 1 7.32 1 8 C-1.475 7.01 -1.475 7.01 -4 6 C-4 4.68 -4 3.36 -4 2 C-3.01 2 -2.02 2 -1 2 C-0.67 1.34 -0.34 0.68 0 0 Z " fill="#FD731E" transform="translate(252,203)"/>
<path d="M0 0 C0.66 0.33 1.32 0.66 2 1 C2 1.66 2 2.32 2 3 C3.32 3 4.64 3 6 3 C5.60196439 5.88575819 5.20990931 6.82189513 2.9375 8.75 C2.298125 9.1625 1.65875 9.575 1 10 C0.690625 8.88625 0.38125 7.7725 0.0625 6.625 C-0.82326483 3.2054845 -0.82326483 3.2054845 -2 1 C-1.34 0.67 -0.68 0.34 0 0 Z " fill="#F58E4B" transform="translate(289,156)"/>
<path d="M0 0 C0.33 0.66 0.66 1.32 1 2 C-0.53192402 3.53192402 -2.06327002 5.06083656 -3.625 6.5625 C-5.10933511 7.972776 -5.10933511 7.972776 -6 10 C-6.99 10 -7.98 10 -9 10 C-9 10.66 -9 11.32 -9 12 C-10.5 13.625 -10.5 13.625 -12 15 C-12.99 14.67 -13.98 14.34 -15 14 C-14.34 14 -13.68 14 -13 14 C-12.67 13.01 -12.34 12.02 -12 11 C-11.34 11 -10.68 11 -10 11 C-10 10.34 -10 9.68 -10 9 C-9.34 9 -8.68 9 -8 9 C-7.79375 8.443125 -7.5875 7.88625 -7.375 7.3125 C-5.44999226 4.07498698 -2.96149098 2.31768859 0 0 Z " fill="#F0AC80" transform="translate(191,129)"/>
<path d="M0 0 C1.32 0 2.64 0 4 0 C4 0.99 4 1.98 4 3 C5.32 3.33 6.64 3.66 8 4 C8 4.66 8 5.32 8 6 C9.32 6.33 10.64 6.66 12 7 C12.33 8.65 12.66 10.3 13 12 C11.66102417 11.04956626 10.32894573 10.08940853 9 9.125 C7.88625 8.32449219 7.88625 8.32449219 6.75 7.5078125 C6.1725 7.01023437 5.595 6.51265625 5 6 C5 5.34 5 4.68 5 4 C4.01 3.67 3.02 3.34 2 3 C2 2.34 2 1.68 2 1 C1.34 0.67 0.68 0.34 0 0 Z " fill="#F09B67" transform="translate(280,257)"/>
<path d="M0 0 C1.65 0 3.3 0 5 0 C5.33 1.65 5.66 3.3 6 5 C7.32 5 8.64 5 10 5 C10.33 6.98 10.66 8.96 11 11 C6.86378916 7.6189962 3.18683431 4.33409466 0 0 Z " fill="#F0965E" transform="translate(178,172)"/>
<path d="M0 0 C0.2475 0.61875 0.495 1.2375 0.75 1.875 C2.20628639 4.35068687 3.37812506 4.95125002 6 6 C5.67 7.32 5.34 8.64 5 10 C2.0625 8.8125 2.0625 8.8125 -1 7 C-1.875 4.3125 -1.875 4.3125 -2 2 C-1.34 2 -0.68 2 0 2 C0 1.34 0 0.68 0 0 Z " fill="#F67624" transform="translate(214,160)"/>
<path d="M0 0 C0.33 0.66 0.66 1.32 1 2 C-0.25 4.5625 -0.25 4.5625 -2 7 C-2.99 7.33 -3.98 7.66 -5 8 C-5.33 8.99 -5.66 9.98 -6 11 C-7.65 11.33 -9.3 11.66 -11 12 C-7.49102731 7.81576108 -3.91939465 3.80411834 0 0 Z " fill="#F29E68" transform="translate(307,156)"/>
<path d="M0 0 C4.60998112 1.47867319 7.26115851 4.37922388 10.3125 8.0625 C10.3125 8.3925 10.3125 8.7225 10.3125 9.0625 C8.6625 9.0625 7.0125 9.0625 5.3125 9.0625 C4.6525 7.0825 3.9925 5.1025 3.3125 3.0625 C0.6725 2.7325 -1.9675 2.4025 -4.6875 2.0625 C-2.6875 0.0625 -2.6875 0.0625 0 0 Z " fill="#F09E67" transform="translate(196.6875,126.9375)"/>
<path d="M0 0 C3.38818502 1.43605193 5.3186598 3.20466579 7.6875 6 C8.28949219 6.70125 8.89148438 7.4025 9.51171875 8.125 C11 10 11 10 12 12 C8.02385628 10.67461876 5.88810116 8.98769086 3 6 C2.34 6 1.68 6 1 6 C0.67 4.02 0.34 2.04 0 0 Z " fill="#F09864" transform="translate(299,246)"/>
<path d="M0 0 C2.91517292 1.07401108 4.77810176 1.77810176 7 4 C7.4140625 6.8203125 7.4140625 6.8203125 7.625 10.125 C7.69976562 11.22070312 7.77453125 12.31640625 7.8515625 13.4453125 C7.92503906 14.70988281 7.92503906 14.70988281 8 16 C7.34 15.67 6.68 15.34 6 15 C5.76171875 13.14453125 5.76171875 13.14453125 5.6875 10.8125 C5.26412103 5.71566855 3.56641322 3.56641322 0 0 Z " fill="#F09B68" transform="translate(260,228)"/>
<path d="M0 0 C5.74728261 4.1576087 5.74728261 4.1576087 6.9375 8.125 C7 11 7 11 6 14 C5.34 14 4.68 14 4 14 C4.33 11.36 4.66 8.72 5 6 C3.68 5.67 2.36 5.34 1 5 C0.67 3.35 0.34 1.7 0 0 Z " fill="#F09C64" transform="translate(233,162)"/>
<path d="M0 0 C0.33 0 0.66 0 1 0 C1.33 2.64 1.66 5.28 2 8 C2.99 8 3.98 8 5 8 C5 9.65 5 11.3 5 13 C0.125 9.25 0.125 9.25 -1 7 C-1.125 3.9375 -1.125 3.9375 -1 1 C-0.67 0.67 -0.34 0.34 0 0 Z " fill="#EF9156" transform="translate(167,153)"/>
<path d="M0 0 C0.33 0.66 0.66 1.32 1 2 C-3.83323235 6.14277059 -7.53597935 8.36937261 -14 8 C-11.36095629 6.58622659 -8.92879371 5.62759865 -6 5 C-5.67 3.68 -5.34 2.36 -5 1 C-3.35 0.67 -1.7 0.34 0 0 Z " fill="#F19E61" transform="translate(296,181)"/>
<path d="M0 0 C4.875 2.625 4.875 2.625 6 6 C4.02 6.99 4.02 6.99 2 8 C1.67 7.01 1.34 6.02 1 5 C0.34 5 -0.32 5 -1 5 C-0.67 3.35 -0.34 1.7 0 0 Z " fill="#FA7422" transform="translate(185,144)"/>
<path d="M0 0 C0.6875 1.6875 0.6875 1.6875 1 4 C-0.80052796 8.10120257 -2.94237455 10.12724979 -7 12 C-7.66 11.67 -8.32 11.34 -9 11 C-8.43410156 10.45730469 -7.86820312 9.91460937 -7.28515625 9.35546875 C-6.55167969 8.64003906 -5.81820313 7.92460937 -5.0625 7.1875 C-3.96615234 6.12595703 -3.96615234 6.12595703 -2.84765625 5.04296875 C-0.79165354 3.04463837 -0.79165354 3.04463837 0 0 Z " fill="#EF9C63" transform="translate(272,178)"/>
<path d="M0 0 C0.66 0.66 1.32 1.32 2 2 C1.34 4.31 0.68 6.62 0 9 C-2.31 7.02 -4.62 5.04 -7 3 C-4.66666667 3 -2.33333333 3 0 3 C0 2.01 0 1.02 0 0 Z " fill="#F69755" transform="translate(203,172)"/>
<path d="M0 0 C0.99 0 1.98 0 3 0 C3.33 0.66 3.66 1.32 4 2 C6.02463255 2.65213292 6.02463255 2.65213292 8 3 C8.33 4.98 8.66 6.96 9 9 C8.52949219 8.566875 8.05898437 8.13375 7.57421875 7.6875 C6.95160156 7.130625 6.32898438 6.57375 5.6875 6 C5.07261719 5.443125 4.45773438 4.88625 3.82421875 4.3125 C1.96868665 2.70798502 1.96868665 2.70798502 -1 3 C-0.67 2.01 -0.34 1.02 0 0 Z " fill="#F09E66" transform="translate(177,155)"/>
<path d="M0 0 C0.66 0 1.32 0 2 0 C2 0.99 2 1.98 2 3 C2.66 3 3.32 3 4 3 C3.6875 4.875 3.6875 4.875 3 7 C2.01 7.66 1.02 8.32 0 9 C-1.125 3.375 -1.125 3.375 0 0 Z " fill="#F59354" transform="translate(272,186)"/>
<path d="M0 0 C0 3 0 3 -1.3125 4.375 C-1.869375 4.91125 -2.42625 5.4475 -3 6 C-4.03357147 7.64605826 -5.04060332 9.30963442 -6 11 C-6.99 10.34 -7.98 9.68 -9 9 C-6.03 6.03 -3.06 3.06 0 0 Z " fill="#F3965A" transform="translate(201,243)"/>
<path d="M0 0 C0.33 0.66 0.66 1.32 1 2 C-0.25 4.625 -0.25 4.625 -2 7 C-2.99 7 -3.98 7 -5 7 C-5 7.66 -5 8.32 -5 9 C-5.99 8.67 -6.98 8.34 -8 8 C-5.33333333 5.33333333 -2.66666667 2.66666667 0 0 Z " fill="#F2985F" transform="translate(210,234)"/>
<path d="M0 0 C0.33 1.32 0.66 2.64 1 4 C0.01 4.66 -0.98 5.32 -2 6 C-3.67423683 7.32381517 -5.34211215 8.65576661 -7 10 C-7.66 9.67 -8.32 9.34 -9 9 C-6.03 6.03 -3.06 3.06 0 0 Z " fill="#F3A166" transform="translate(262,190)"/>
<path d="M0 0 C1.32 0.66 2.64 1.32 4 2 C3.67 3.65 3.34 5.3 3 7 C1 7 1 7 -0.625 5.5 C-1.07875 5.005 -1.5325 4.51 -2 4 C-1.34 2.68 -0.68 1.36 0 0 Z " fill="#FD721A" transform="translate(187,173)"/>
<path d="M0 0 C2.31 1.98 4.62 3.96 7 6 C6.34 6.66 5.68 7.32 5 8 C2.525 7.01 2.525 7.01 0 6 C0 4.02 0 2.04 0 0 Z " fill="#F68C53" transform="translate(196,165)"/>
<path d="M0 0 C2.0625 0.4375 2.0625 0.4375 4 1 C4.33 2.65 4.66 4.3 5 6 C3.68 6 2.36 6 1 6 C0.34 4.35 -0.32 2.7 -1 1 C-0.67 0.67 -0.34 0.34 0 0 Z " fill="#FB741E" transform="translate(290,153)"/>
<path d="M0 0 C0.33 0.66 0.66 1.32 1 2 C3.02463255 2.65213292 3.02463255 2.65213292 5 3 C4.34 3 3.68 3 3 3 C2.34 4.32 1.68 5.64 1 7 C0.34 7 -0.32 7 -1 7 C-1 6.34 -1 5.68 -1 5 C-1.66 4.67 -2.32 4.34 -3 4 C-2.01 2.68 -1.02 1.36 0 0 Z " fill="#F48945" transform="translate(216,191)"/>
<path d="M0 0 C1.32 0.33 2.64 0.66 4 1 C4 1.99 4 2.98 4 4 C3.67 3.34 3.34 2.68 3 2 C2.01 2 1.02 2 0 2 C0 1.34 0 0.68 0 0 Z M-4 2 C-2.68 2 -1.36 2 0 2 C0 3.65 0 5.3 0 7 C-2 5.625 -2 5.625 -4 4 C-4 3.34 -4 2.68 -4 2 Z " fill="#F0955A" transform="translate(209,180)"/>
<path d="M0 0 C1.32 0 2.64 0 4 0 C4 0.66 4 1.32 4 2 C3.34 2 2.68 2 2 2 C1.34 3.32 0.68 4.64 0 6 C-0.99 6 -1.98 6 -3 6 C-2.67 4.68 -2.34 3.36 -2 2 C-1.34 2 -0.68 2 0 2 C0 1.34 0 0.68 0 0 Z " fill="#F3A466" transform="translate(203,267)"/>
<path d="M0 0 C0.66 0.33 1.32 0.66 2 1 C1.01 2.485 1.01 2.485 0 4 C-0.66 4 -1.32 4 -2 4 C-2.33 4.99 -2.66 5.98 -3 7 C-3.66 7 -4.32 7 -5 7 C-5 5.68 -5 4.36 -5 3 C-4.34 3 -3.68 3 -3 3 C-3 2.34 -3 1.68 -3 1 C-2.01 0.67 -1.02 0.34 0 0 Z " fill="#F19F6B" transform="translate(242,222)"/>
<path d="M0 0 C1.98 0.99 1.98 0.99 4 2 C4 1.34 4 0.68 4 0 C5.32 0.33 6.64 0.66 8 1 C5.69 2.65 3.38 4.3 1 6 C0.67 4.02 0.34 2.04 0 0 Z " fill="#F59253" transform="translate(264,195)"/>
<path d="M0 0 C1.1446875 1.175625 1.1446875 1.175625 2.3125 2.375 C4.90891805 5.07257717 4.90891805 5.07257717 8 7 C7.67 7.66 7.34 8.32 7 9 C4.525 8.01 4.525 8.01 2 7 C2 6.01 2 5.02 2 4 C1.34 4 0.68 4 0 4 C0 2.68 0 1.36 0 0 Z " fill="#F0A475" transform="translate(188,168)"/>
<path d="M0 0 C0.33 0.66 0.66 1.32 1 2 C2.32 1.67 3.64 1.34 5 1 C4.67 1.66 4.34 2.32 4 3 C3.34 3 2.68 3 2 3 C2 3.66 2 4.32 2 5 C0.02 5.99 0.02 5.99 -2 7 C-1.125 1.125 -1.125 1.125 0 0 Z " fill="#F69A55" transform="translate(211,258)"/>
<path d="M0 0 C0.66 0 1.32 0 2 0 C1.35455571 3.48539917 -0.10134397 6.02819057 -2 9 C-3.32 8.67 -4.64 8.34 -6 8 C-5.566875 7.50628906 -5.13375 7.01257813 -4.6875 6.50390625 C-4.130625 5.86324219 -3.57375 5.22257813 -3 4.5625 C-2.443125 3.92441406 -1.88625 3.28632813 -1.3125 2.62890625 C0.10457065 1.21886821 0.10457065 1.21886821 0 0 Z " fill="#F0A06A" transform="translate(241,209)"/>
<path d="M0 0 C0.33 0.99 0.66 1.98 1 3 C0.01 3.33 -0.98 3.66 -2 4 C-1.67 4.99 -1.34 5.98 -1 7 C-2.98 7.33 -4.96 7.66 -7 8 C-6.02133662 6.85373678 -5.04205413 5.70800212 -4.0625 4.5625 C-3.51722656 3.92441406 -2.97195313 3.28632813 -2.41015625 2.62890625 C-1.63204305 1.73008851 -0.84063472 0.84063472 0 0 Z " fill="#F3A56F" transform="translate(295,168)"/>
<path d="M0 0 C1.65 0 3.3 0 5 0 C5 1.65 5 3.3 5 5 C3.68 4.67 2.36 4.34 1 4 C0.67 2.68 0.34 1.36 0 0 Z " fill="#F87621" transform="translate(194,144)"/>
<path d="M0 0 C4.75 1.875 4.75 1.875 7 3 C7.625 5.5625 7.625 5.5625 8 8 C6.85073734 7.04578192 5.70569459 6.08647955 4.5625 5.125 C3.92441406 4.59132812 3.28632813 4.05765625 2.62890625 3.5078125 C1 2 1 2 0 0 Z " fill="#EE9560" transform="translate(224,192)"/>
<path d="M0 0 C1.2065625 0.0309375 1.2065625 0.0309375 2.4375 0.0625 C0.79580472 2.08304804 -0.87161778 4.08293058 -2.5625 6.0625 C-2.8925 6.0625 -3.2225 6.0625 -3.5625 6.0625 C-3.605221 4.39638095 -3.60313832 2.72867115 -3.5625 1.0625 C-2.5625 0.0625 -2.5625 0.0625 0 0 Z " fill="#F1A66C" transform="translate(287.5625,165.9375)"/>
<path d="M0 0 C2.5 2.3125 2.5 2.3125 5 5 C5 5.99 5 6.98 5 8 C4.01 8.33 3.02 8.66 2 9 C2 7.35 2 5.7 2 4 C1.34 4 0.68 4 0 4 C0 2.68 0 1.36 0 0 Z " fill="#F39F68" transform="translate(227,155)"/>
<path d="M0 0 C1.32 0 2.64 0 4 0 C4 0.66 4 1.32 4 2 C4.66 2 5.32 2 6 2 C6.33 3.65 6.66 5.3 7 7 C5.83040013 6.02433888 4.66438823 5.044375 3.5 4.0625 C2.8503125 3.51722656 2.200625 2.97195312 1.53125 2.41015625 C1.0259375 1.94480469 0.520625 1.47945312 0 1 C0 0.67 0 0.34 0 0 Z " fill="#ED9B61" transform="translate(193,159)"/>
<path d="M0 0 C2.475 0.495 2.475 0.495 5 1 C5 1.99 5 2.98 5 4 C4.01 4.33 3.02 4.66 2 5 C1.34 4.67 0.68 4.34 0 4 C0 2.68 0 1.36 0 0 Z " fill="#F78335" transform="translate(204,136)"/>
<path d="M0 0 C2.16874252 0.50603992 3.99967627 0.99983813 6 2 C6 2.66 6 3.32 6 4 C3.03 4 0.06 4 -3 4 C-2.01 2.68 -1.02 1.36 0 0 Z " fill="#EB9D68" transform="translate(313,128)"/>
<path d="M0 0 C0.33 0 0.66 0 1 0 C0.125 7.75 0.125 7.75 -1 10 C-1.66 10 -2.32 10 -3 10 C-2.69201674 8.51988629 -2.378482 7.04092675 -2.0625 5.5625 C-1.88847656 4.73878906 -1.71445313 3.91507813 -1.53515625 3.06640625 C-1 1 -1 1 0 0 Z " fill="#EFA471" transform="translate(232,235)"/>
<path d="M0 0 C1.98 1.65 3.96 3.3 6 5 C5.01 5.99 4.02 6.98 3 8 C2.34 7.67 1.68 7.34 1 7 C1.33 5.68 1.66 4.36 2 3 C1.34 3 0.68 3 0 3 C0 2.01 0 1.02 0 0 Z " fill="#F39253" transform="translate(263,218)"/>
<path d="M0 0 C0.99 1.32 1.98 2.64 3 4 C1.02 4.99 1.02 4.99 -1 6 C-1.66 5.01 -2.32 4.02 -3 3 C-2.01 2.01 -1.02 1.02 0 0 Z " fill="#FD731C" transform="translate(270,186)"/>
<path d="M0 0 C0.66 0 1.32 0 2 0 C2 0.66 2 1.32 2 2 C2.66 2.33 3.32 2.66 4 3 C2.02 4.32 0.04 5.64 -2 7 C-2.33 5.68 -2.66 4.36 -3 3 C-2.01 3 -1.02 3 0 3 C0 2.01 0 1.02 0 0 Z " fill="#F38E50" transform="translate(304,169)"/>
<path d="M0 0 C1.98 1.65 3.96 3.3 6 5 C2.25 6.125 2.25 6.125 0 5 C0 3.35 0 1.7 0 0 Z " fill="#F29D65" transform="translate(220,149)"/>
<path d="M0 0 C0.33 1.32 0.66 2.64 1 4 C-0.98 5.32 -2.96 6.64 -5 8 C-5.66 7.67 -6.32 7.34 -7 7 C-4.69 4.69 -2.38 2.38 0 0 Z " fill="#F3A77C" transform="translate(317,146)"/>
<path d="M0 0 C0.66 0.33 1.32 0.66 2 1 C0.625 2.5 0.625 2.5 -1 4 C-1.66 4 -2.32 4 -3 4 C-3 4.66 -3 5.32 -3 6 C-3.99 6.33 -4.98 6.66 -6 7 C-6 5.68 -6 4.36 -6 3 C-5.195625 2.690625 -4.39125 2.38125 -3.5625 2.0625 C-1.10919595 1.23664655 -1.10919595 1.23664655 0 0 Z " fill="#F5AC7F" transform="translate(227,246)"/>
<path d="M0 0 C0.66 0 1.32 0 2 0 C2 0.66 2 1.32 2 2 C3.65 2.33 5.3 2.66 7 3 C7 3.99 7 4.98 7 6 C4.0625 5.25 4.0625 5.25 1 4 C0.125 1.875 0.125 1.875 0 0 Z " fill="#F37F33" transform="translate(257,223)"/>
<path d="M0 0 C-0.33 1.32 -0.66 2.64 -1 4 C-2.65 3.67 -4.3 3.34 -6 3 C-6 2.34 -6 1.68 -6 1 C-3 0 -3 0 0 0 Z " fill="#FC731B" transform="translate(265,222)"/>
<path d="M0 0 C0.99 0 1.98 0 3 0 C3 1.32 3 2.64 3 4 C3.99 4.33 4.98 4.66 6 5 C4.02 5 2.04 5 0 5 C0 3.35 0 1.7 0 0 Z " fill="#F87423" transform="translate(206,167)"/>
<path d="M0 0 C2.31 1.98 4.62 3.96 7 6 C6.34 6.66 5.68 7.32 5 8 C5 7.34 5 6.68 5 6 C3.68 5.67 2.36 5.34 1 5 C0.67 3.35 0.34 1.7 0 0 Z " fill="#F09D68" transform="translate(209,138)"/>
<path d="M0 0 C2.475 0.495 2.475 0.495 5 1 C5.33 2.65 5.66 4.3 6 6 C5.34 6 4.68 6 4 6 C4 5.34 4 4.68 4 4 C3.34 4 2.68 4 2 4 C1.34 2.68 0.68 1.36 0 0 Z " fill="#F09B67" transform="translate(270,246)"/>
<path d="M0 0 C2.475 0.495 2.475 0.495 5 1 C5.33 2.32 5.66 3.64 6 5 C5.34 5 4.68 5 4 5 C3.34 4.34 2.68 3.68 2 3 C1.01 3.495 1.01 3.495 0 4 C0 2.68 0 1.36 0 0 Z " fill="#F3A773" transform="translate(188,143)"/>
</svg>
